<?xml version="1.0" encoding="utf-8"?>
<!-- Generator: Adobe Illustrator 25.3.1, SVG Export Plug-In . SVG Version: 6.00 Build 0)  -->
<svg version="1.1" id="Layer_1" xmlns="http://www.w3.org/2000/svg" xmlns:xlink="http://www.w3.org/1999/xlink" x="0px" y="0px"
	 viewBox="0 0 288 141" style="enable-background:new 0 0 288 141;" xml:space="preserve">
<style type="text/css">
	.st0{fill:#D3CCC5;}
</style>
<path class="st0" d="M210.2-4.1c-1.4-1.3-2.8-2.8-4-4.2C207.3-7.2,208.7-5.6,210.2-4.1z"/>
<path class="st0" d="M219.3,0.8C219.3,0.8,219.3,0.9,219.3,0.8l-0.4,0.1c-0.4,0-0.7,0-1.1-0.1l0,0c-0.4-0.1-0.8-0.2-1.2-0.3l0,0
	l-0.5-0.2l0,0c-1.9-0.9-3.6-2.1-5.1-3.6c1.8,1.8,4.1,3.1,6.5,3.9c0.4,0.1,0.8,0.2,1.1,0.2c0.1,0,0.3,0,0.4,0c0.1,0,0.1,0,0.2,0
	C219.3,0.7,219.3,0.7,219.3,0.8L219.3,0.8z"/>
<path class="st0" d="M98.6,105.4c-0.6,5.8-3.5,11.2-8.1,14.9c-2.3,1.9-4.8,3.3-7.6,4.3c-2.9,1-6,1.6-9.1,1.6
	c-4.3,0-8.5-0.8-12.4-2.4c-3.8-1.5-7.3-3.9-10.2-6.8c-6.7-6.9-10.1-16.1-10.1-27.7s3.3-20.9,10-27.8c2.8-2.9,6.1-5.2,9.9-6.7
	c3.7-1.6,7.7-2.4,11.8-2.4c5.9,0,10.7,1,14.4,2.9c3.3,1.6,6.1,4,8.1,7c1.5,2.2,2.4,4.8,2.5,7.5c0,2.3-0.7,4.4-2.1,6.3
	c-1.4,2-3.8,3.1-6.2,3c-1.6,0-3.2-0.6-4.5-1.6c-1.2-0.8-1.9-2.1-2-3.5c1.2-0.3,2.2-1,2.9-2c0.7-0.9,1.1-2,1.2-3.1
	c0-3.5-0.9-6.9-2.7-9.8c-1.8-3-5.3-4.6-10.4-4.6c-5.5,0-9.8,2.4-13.1,7.2c-4,5.9-6.1,15.2-6.1,27.7c0,12.7,2.1,21.9,6.2,27.6
	c1.6,2.3,3.7,4.2,6.2,5.5c2.6,1.2,5.4,1.8,8.2,1.8c2.3,0,4.6-0.5,6.7-1.4c2.3-1,4.5-2.3,6.5-3.9c2-1.7,3.7-3.7,4.9-5.9
	c1.3-2.3,2.1-4.8,2.5-7.4L98.6,105.4z"/>
<path class="st0" d="M148.6,123.7v0.9h-18v-4.8c-1.9,2.2-4.3,3.9-7,5c-2,0.9-4.2,1.3-6.5,1.2c-5.7,0-10.1-1.1-13.3-3.3
	c-3.1-2-4.9-5.5-4.8-9.3c0-2.1,0.7-4.1,2-5.7c1.6-2.1,3.6-3.8,5.9-5c3.2-1.8,6.8-3,10.4-3.7c4.4-0.9,8.8-1.3,13.2-1.3v-6.1
	c0-4.5-0.6-7.8-1.8-9.7s-3.4-2.9-6.8-2.9c-2.1-0.1-4.1,0.5-5.8,1.7c-1.5,1.2-2.3,3-2.2,4.9c0,1.2,0.4,2.3,1.1,3.2
	c0.7,1,1.7,1.7,2.9,2c-0.1,1.4-0.8,2.7-2,3.5c-1.3,1.1-2.9,1.6-4.5,1.6c-2.8,0-4.9-0.8-6.3-2.5c-1.3-1.6-2-3.7-2-5.8
	c0-2.3,1-4.4,2.7-5.9c2-1.8,4.5-3.1,7.1-3.9c2.9-0.9,5.9-1.4,8.9-1.4c5.9,0,10.6,1.4,14.1,4.1c3.4,2.6,5.3,6.7,5.2,11v26.1
	c0,1.2,0.4,2.4,1.2,3.4s1.9,1.6,3.1,1.9L148.6,123.7z M130.6,101c-5.8,0-10.2,1.1-13.2,3.4s-4.5,5.6-4.6,10
	c-0.1,2.3,0.7,4.5,2.1,6.2c1.2,1.5,3.1,2.4,5.1,2.4c1.4,0,2.8-0.3,4-1.1c1.4-0.9,2.7-1.9,3.8-3.1c1.2-1.2,2.1-2.6,2.7-4.1L130.6,101
	z"/>
<path class="st0" d="M198.9,123.7v0.9h-18v-4.8c-1.9,2.2-4.3,3.9-7,5c-2,0.9-4.2,1.3-6.5,1.2c-5.7,0-10.1-1.1-13.3-3.3
	c-3.1-2-4.9-5.6-4.8-9.3c0-2.1,0.7-4.1,2-5.7c1.6-2.1,3.6-3.8,5.9-5c3.2-1.8,6.8-3,10.4-3.7c4.4-0.9,8.8-1.3,13.2-1.3v-6.1
	c0-4.5-0.6-7.8-1.8-9.7s-3.5-2.9-6.8-2.9c-2.1-0.1-4.1,0.5-5.8,1.7c-1.5,1.2-2.3,3-2.2,4.9c0,1.2,0.4,2.3,1.1,3.2
	c0.7,1,1.7,1.7,2.9,2c-0.1,1.4-0.8,2.7-2,3.5c-1.3,1.1-2.9,1.6-4.5,1.6c-2.8,0-4.9-0.8-6.3-2.5c-1.3-1.6-2-3.7-2-5.8
	c0-2.3,1-4.4,2.7-5.9c2-1.8,4.5-3.1,7.1-3.9c2.9-0.9,5.9-1.4,8.9-1.4c5.9,0,10.6,1.4,14.1,4.1c3.4,2.6,5.3,6.7,5.2,11v26.1
	c0,1.2,0.4,2.4,1.2,3.4s1.9,1.6,3.1,1.9L198.9,123.7z M180.9,101c-5.8,0-10.2,1.1-13.2,3.4s-4.6,5.6-4.6,10
	c-0.1,2.3,0.7,4.5,2.1,6.2c1.3,1.6,3.2,2.5,5.2,2.5c1.4,0,2.8-0.3,4-1.1c1.4-0.9,2.7-1.9,3.8-3.1c1.2-1.2,2.1-2.6,2.7-4.1V101z"/>
<path class="st0" d="M200.5,123.1c1.2-0.2,2.3-0.9,3.1-1.9s1.2-2.2,1.2-3.4V60.6c0-1.2-0.4-2.4-1.2-3.4s-1.9-1.6-3.1-1.9l-3-0.6
	v-0.9h18v64c0,1.2,0.4,2.4,1.2,3.4s1.9,1.6,3.1,1.9l3,0.6v0.9h-25.3v-0.9L200.5,123.1z"/>
<path class="st0" d="M226,123.1c1.2-0.2,2.3-0.9,3.1-1.9s1.2-2.2,1.2-3.4v-33c0-1.2-0.4-2.4-1.2-3.4s-1.9-1.6-3.1-1.9l-3-0.6V78h18
	v39.7c0,1.2,0.4,2.4,1.2,3.4s1.9,1.6,3.1,1.9l3,0.6v0.9H223v-0.9L226,123.1z M239.2,70.4c-2.2,2.2-5.7,2.3-7.9,0.2
	c-2.2-2.2-2.3-5.7-0.2-7.9c2.2-2.2,5.7-2.3,7.9-0.2c1.1,1.1,1.7,2.5,1.7,4.1C240.8,67.9,240.2,69.3,239.2,70.4L239.2,70.4z"/>
<path class="st0" d="M76.2,126c-4.7,0.7-11.7,0.2-15.9-1.6c-4.2-1.9-7.9-4.8-10.8-8.4c-2.8-3.6-4.9-7.7-6.3-12
	c-1.4-4.3-2.4-8.7-2.8-13.1c-0.5-4.4-0.6-8.9-0.2-13.4c0.4-4.5,1.3-8.9,2.6-13.2c2.6-8.7,7.4-16.5,13.9-22.8
	c6.7-6.2,14.9-10.3,23.8-12.1c8.8-1.7,17.8-1.9,26.6-0.4c8.7,1.4,17.3,3.7,25.6,6.8c8.3,3,16.3,6.6,24.2,10.1
	c3.9,1.8,7.9,3.3,12,4.5c4,1.2,8.2,1.7,12.4,1.5c4.1-0.2,8.1-1.5,11.6-3.7c1.7-1.1,3.1-2.5,4.3-4.2c0.6-0.8,1.1-1.7,1.6-2.6
	c0.5-0.9,0.9-1.9,1.2-2.9c2.6-7.7,1.1-17.1-4.6-22.9c-2.8-2.9-6.6-4.7-10.7-4.9c-4.1-0.1-8,1.5-10.9,4.4c-2.9,2.8-4.9,6.8-3.9,10.7
	s3.6,7.5,6.8,10.5c-4.2-2-7.4-5.6-8.8-10c-0.7-2.3-0.6-4.8,0.4-7.1c0.9-2.2,2.2-4.1,3.9-5.8c1.6-1.7,3.6-3,5.7-4
	c2.2-0.9,4.5-1.4,6.9-1.4c4.8,0.1,9.3,2.1,12.6,5.5c0.8,0.8,1.6,1.7,2.3,2.7c2,2.9,3.3,6.1,4,9.6c0.9,4.6,0.6,9.3-0.8,13.7
	c-0.4,1.1-0.8,2.2-1.3,3.2s-1.2,2-1.9,3c-1.4,1.9-3.1,3.6-5.1,4.9c-3.9,2.5-8.4,4-13,4.2c-4.5,0.3-9.1-0.3-13.4-1.6
	c-4.3-1.2-8.4-2.8-12.5-4.6c-8-3.5-15.9-7-24.1-10c-8.1-3.1-16.5-5.3-25-6.6c-8.5-1.4-17.1-1.2-25.5,0.4c-8.3,1.7-16,5.6-22.3,11.4
	c-6.1,5.9-10.5,13.3-13,21.4c-2.5,8.2-3.3,16.8-2.3,25.2c0.4,4.2,1.3,8.4,2.7,12.4c1.3,4,3.2,7.7,5.8,11c5,6.4,7,10.4,14.9,9.4"/>
<path class="st0" d="M58.7,40.6c-1-2.6-1.5-5.4-1.4-8.1c0-3,1.4-5.7,3.7-7.5c2.3-1.5,4.7-2.9,7.2-4.1c1.2-0.6,2.2-1.3,3.2-2.2
	c0.8-0.9,1.4-2,1.7-3.2l0,0c0.1-0.4,0.6-0.7,1-0.6c0.3,0.1,0.6,0.4,0.6,0.7c0.4,2.7,0.4,5.3,0,8c-0.3,2.7-1.4,5.3-3.3,7.3
	c-1.9,1.9-4.3,3.2-6.4,4.6c-2.3,1.2-4,3.2-4.9,5.6c0.4-2.6,2.4-4.7,4.5-6.2s4.3-2.9,5.9-4.8s2.5-4.2,2.7-6.7c0.3-2.5,0.3-5-0.1-7.5
	l1.7,0.1c-0.4,1.5-1.1,2.8-2.2,3.9c-1.1,1-2.3,1.8-3.6,2.4c-2.5,1.2-5,2.4-7.2,3.8c-2.1,1.5-3.5,3.9-3.6,6.5
	C57.8,35.2,58,38,58.7,40.6z"/>
<path class="st0" d="M59.5,39.3c-0.2-2.3,0.2-4.7,1.4-6.8c0.6-1.1,1.5-2,2.6-2.6c0.9-0.6,1.9-1.2,2.7-1.9c1.8-1.2,3.4-2.7,4.7-4.4
	c1.3-1.8,2.2-3.8,2.8-6c0.1,2.4-0.5,4.7-1.7,6.7s-2.9,3.7-4.8,5.1c-0.9,0.7-1.9,1.3-2.9,1.9c-0.9,0.5-1.7,1.2-2.3,2
	C60.8,35.1,59.9,37.1,59.5,39.3z"/>
<path class="st0" d="M88.3,30.5c-0.2-2.8,0.2-5.6,1.1-8.2c0.9-2.8,3-5,5.8-6.1c2.7-0.8,5.4-1.4,8.1-1.8c1.3-0.2,2.5-0.6,3.7-1.2
	c1.1-0.6,2-1.5,2.6-2.5l0,0c0.3-0.4,0.8-0.5,1.2-0.2c0.3,0.2,0.4,0.5,0.4,0.8c-0.4,2.6-1.2,5.2-2.3,7.6c-1.1,2.5-3,4.6-5.3,6
	c-2.4,1.3-5,1.8-7.5,2.4c-2.5,0.5-4.8,1.8-6.4,3.9c1.2-2.4,3.7-3.8,6.1-4.6s5-1.5,7.1-2.8s3.6-3.3,4.6-5.6s1.7-4.7,2.1-7.2l1.5,0.6
	c-0.8,1.3-1.9,2.3-3.2,3.1c-1.3,0.7-2.7,1.1-4.1,1.3c-2.7,0.5-5.4,0.8-8,1.5c-2.5,0.8-4.5,2.7-5.4,5.2
	C89.1,25.1,88.4,27.8,88.3,30.5z"/>
<path class="st0" d="M89.5,29.4c0.5-2.3,1.6-4.4,3.3-6c0.9-0.8,2-1.4,3.2-1.8c1.1-0.3,2.1-0.6,3.2-1c2.1-0.7,4-1.6,5.8-2.8
	c1.8-1.3,3.3-3,4.4-4.9c-0.6,2.3-1.8,4.3-3.6,5.9c-1.8,1.5-3.9,2.7-6.1,3.4c-1.1,0.4-2.2,0.7-3.3,0.9c-1,0.2-1.9,0.6-2.8,1.2
	C92,25.8,90.6,27.5,89.5,29.4z"/>
<path class="st0" d="M120.1,33.3c0.3-2.6,1.2-5.1,2.5-7.3c1.3-2.4,3.7-4.1,6.4-4.5c2.6-0.2,5.2-0.3,7.8-0.2c1.2,0.1,2.4-0.1,3.6-0.4
	c1.1-0.4,2.1-1,2.9-1.8l0,0c0.3-0.3,0.9-0.3,1.2,0c0.2,0.2,0.3,0.6,0.2,0.9c-0.9,2.3-2.1,4.6-3.6,6.6c-1.5,2.1-3.6,3.7-6.1,4.5
	c-2.4,0.5-4.9,0.8-7.3,0.8c-2.4-0.1-4.7,0.8-6.6,2.3c1.5-2,4.1-2.8,6.5-3.1s4.9-0.4,7-1.2c2.1-0.8,3.9-2.3,5.2-4.2s2.4-4,3.3-6.2
	l1.4,0.9c-1,1-2.2,1.8-3.6,2.2c-1.3,0.3-2.7,0.5-4,0.4c-2.6-0.1-5.1-0.3-7.6-0.2c-2.4,0.3-4.6,1.6-5.9,3.7
	C121.9,28.5,120.8,30.8,120.1,33.3z"/>
<path class="st0" d="M121.4,32.6c0.8-2.1,2.3-3.8,4.2-5c1-0.6,2.1-0.9,3.3-1c1-0.1,2.1-0.1,3.1-0.3c2-0.2,4-0.7,5.9-1.5
	c1.9-0.9,3.6-2.1,5-3.6c-1,2-2.5,3.7-4.4,4.8s-4.1,1.8-6.2,2c-1.1,0.1-2.2,0.2-3.2,0.2c-0.9,0-1.9,0.2-2.8,0.6
	C124.4,29.7,122.8,31,121.4,32.6z"/>
<path class="st0" d="M145.6,42c0.2-2,0.9-4,1.9-5.7c1-1.9,2.9-3.2,5.1-3.6c2-0.2,4-0.2,6-0.2c0.9,0,1.8-0.1,2.7-0.3
	c0.8-0.3,1.5-0.7,2.1-1.4l0,0c0.3-0.3,0.8-0.3,1.2,0l0,0c0.2,0.2,0.3,0.6,0.2,0.9c-0.7,1.8-1.6,3.5-2.7,5.1
	c-1.2,1.7-2.8,2.9-4.8,3.5c-1.9,0.4-3.8,0.6-5.7,0.6c-1.9-0.1-3.7,0.5-5.1,1.7c1.3-1.4,3.1-2.3,5-2.5c1.8-0.1,3.6-0.5,5.4-1
	c1.6-0.7,3-1.8,3.9-3.3c1-1.5,1.9-3.1,2.5-4.7l1.4,0.9c-0.8,0.8-1.8,1.4-2.9,1.8c-1,0.3-2.1,0.4-3.2,0.3c-2-0.1-4-0.2-5.9-0.2
	c-1.8,0.2-3.5,1.2-4.5,2.8C147,38.3,146.1,40.1,145.6,42z"/>
<path class="st0" d="M146.6,41.5c0.6-1.6,1.7-3,3.2-4c0.8-0.5,1.7-0.8,2.6-0.8c0.8-0.1,1.6-0.1,2.4-0.2c1.5-0.2,3.1-0.5,4.5-1.1
	c1.5-0.6,2.8-1.5,3.9-2.7c-0.7,1.6-1.8,2.9-3.3,3.8c-1.5,0.9-3.2,1.4-4.9,1.6c-0.8,0.1-1.7,0.2-2.5,0.2c-0.7,0-1.4,0.1-2.1,0.4
	C149,39.3,147.7,40.3,146.6,41.5z"/>
<path class="st0" d="M172.9,52c-0.3-1.7-0.3-3.5,0.1-5.2c0.4-1.9,1.6-3.5,3.4-4.3c1.6-0.6,3.3-1.2,5-1.6c0.8-0.2,1.5-0.5,2.1-0.9
	s1.1-1,1.4-1.6l0,0c0.2-0.4,0.8-0.5,1.2-0.3c0.3,0.2,0.4,0.5,0.4,0.8c-0.1,1.7-0.5,3.4-1.1,5c-0.6,1.7-1.7,3.1-3.2,4.1
	c-1.5,0.8-3,1.4-4.6,1.8c-1.6,0.4-2.9,1.3-3.9,2.6c0.7-1.5,2-2.7,3.6-3.3c1.5-0.6,2.9-1.3,4.2-2.2c1.2-0.9,2-2.2,2.4-3.6
	c0.5-1.5,0.8-3,0.9-4.5l1.6,0.4c-0.5,0.9-1.2,1.7-2,2.2s-1.7,0.8-2.6,1c-1.7,0.4-3.4,0.8-4.9,1.3c-1.5,0.6-2.6,1.8-3.1,3.3
	C173.2,48.6,172.9,50.3,172.9,52z"/>
<path class="st0" d="M173.6,51.3c0.1-1.5,0.6-3,1.6-4.1c0.5-0.6,1.2-1.1,2-1.4c0.6-0.2,1.3-0.5,1.9-0.8c1.2-0.5,2.4-1.2,3.5-2
	c1.1-0.9,2-1.9,2.7-3.1c-0.2,1.5-0.8,2.9-1.8,4s-2.3,2-3.7,2.6c-0.7,0.3-1.4,0.5-2.1,0.7c-0.6,0.1-1.1,0.4-1.6,0.8
	C175.1,49,174.2,50.1,173.6,51.3z"/>
<path class="st0" d="M74.9,32.1c0.6,2.3,1.7,4.5,3.1,6.4c1.2,1.9,3.3,3.2,5.6,3.4c2.3,0.1,4.7-0.1,7.2-0.2c1.3-0.1,2.6,0,3.8,0.4
	c1.3,0.4,2.5,1.1,3.4,2.1l-1.4,0.9c-0.8-2.1-1.8-4-3.1-5.8c-1.2-1.8-2.9-3.2-4.9-4c-2.2-0.6-4.4-1-6.6-1.1c-2.3-0.3-4.7-1.1-6.1-3
	c1.7,1.5,3.9,2.2,6.2,2.2c2.3,0,4.6,0.2,6.9,0.7c2.3,0.7,4.3,2.2,5.8,4.2c1.4,1.9,2.6,4,3.4,6.2c0.2,0.4,0,0.9-0.5,1.1
	c-0.3,0.1-0.7,0-0.9-0.2l0,0c-0.7-0.8-1.7-1.4-2.7-1.7c-1.1-0.3-2.2-0.4-3.3-0.3c-2.4,0.1-4.9,0.1-7.3-0.1c-2.6-0.4-4.8-2-6.1-4.2
	C76,36.9,75.2,34.5,74.9,32.1z"/>
<path class="st0" d="M76.2,32.7c1.3,1.5,2.8,2.7,4.5,3.5c0.8,0.4,1.7,0.5,2.6,0.5c1,0,2,0.1,3.1,0.2c2.1,0.2,4.1,0.9,5.9,1.9
	c1.8,1.1,3.2,2.6,4.1,4.5c-1.4-1.4-3-2.5-4.7-3.3c-1.8-0.7-3.6-1.2-5.5-1.4c-0.9-0.1-1.9-0.2-2.9-0.3c-1.1,0-2.2-0.4-3.1-0.9
	C78.3,36.3,77,34.6,76.2,32.7z"/>
<path class="st0" d="M106.8,31.2c0,2.4,0.5,4.8,1.4,7c0.7,2.2,2.4,3.9,4.6,4.7c2.2,0.7,4.6,1.1,7,1.6c1.3,0.2,2.5,0.7,3.6,1.3
	c1.2,0.7,2.1,1.7,2.8,2.9l-1.6,0.5c-0.2-2.2-0.8-4.3-1.6-6.4c-0.7-2-2-3.8-3.8-5c-1.9-1.1-4-2-6.1-2.7c-2.1-0.8-4.3-2.2-5.2-4.4
	c1.3,1.8,3.3,3.1,5.5,3.6c2.3,0.5,4.5,1.3,6.5,2.3c2.1,1.3,3.7,3.2,4.5,5.5c0.9,2.2,1.5,4.5,1.8,6.8c0.1,0.5-0.3,0.9-0.7,0.9
	c-0.3,0-0.7-0.1-0.8-0.4l0,0c-0.5-0.9-1.3-1.7-2.2-2.3c-1-0.5-2.1-0.9-3.2-1.1c-2.4-0.5-4.7-1.1-7.1-1.9c-2.4-1-4.2-3.1-4.9-5.7
	C106.8,36.1,106.5,33.6,106.8,31.2z"/>
<path class="st0" d="M107.9,32.1c0.9,1.7,2.1,3.3,3.5,4.5c0.7,0.5,1.5,0.9,2.4,1.1c1,0.3,2,0.6,2.9,0.9c2,0.7,3.8,1.9,5.3,3.3
	c1.5,1.5,2.5,3.3,2.9,5.4c-1-1.7-2.2-3.2-3.8-4.4c-1.5-1.1-3.2-2-5-2.7c-0.9-0.4-1.8-0.7-2.7-1c-1.1-0.3-2-0.9-2.8-1.7
	C109.1,36.1,108.2,34.2,107.9,32.1z"/>
<path class="st0" d="M137.3,40.2c-0.5,2-0.6,4.1-0.4,6.1c0.1,1.9,1.1,3.7,2.7,4.8c1.7,1,3.6,1.9,5.4,2.9c1,0.5,1.9,1.1,2.8,1.9
	c0.8,0.9,1.4,1.9,1.7,3.1H148c0.3-1.9,0.3-3.7,0.1-5.6c-0.1-1.8-0.8-3.6-1.9-5c-1.3-1.4-2.8-2.6-4.4-3.7c-1.6-1.2-3-2.8-3.3-4.8
	c0.7,1.8,2.1,3.3,3.8,4.2c1.8,1,3.4,2.1,4.9,3.4c1.5,1.6,2.4,3.5,2.6,5.7c0.3,2,0.3,4.1,0,6.1c-0.1,0.5-0.5,0.8-0.9,0.7
	c-0.3,0-0.6-0.3-0.7-0.6l0,0c-0.2-0.9-0.7-1.7-1.3-2.3c-0.7-0.7-1.5-1.2-2.3-1.6c-1.9-1-3.7-2-5.4-3.2c-1.8-1.4-2.8-3.6-2.8-5.8
	C136.2,44.2,136.6,42.1,137.3,40.2z"/>
<path class="st0" d="M138,41.2c0.4,1.6,1.1,3.1,2,4.5c0.5,0.6,1,1.1,1.7,1.4c0.8,0.4,1.5,0.9,2.2,1.4c1.5,1.1,2.7,2.4,3.6,3.9
	c0.9,1.6,1.3,3.4,1.1,5.2c-0.5-1.6-1.2-3.1-2.2-4.4c-1-1.3-2.2-2.4-3.6-3.3c-0.6-0.5-1.4-1-2-1.4c-0.8-0.5-1.5-1.2-2-2.1
	C138.1,44.8,137.7,43,138,41.2z"/>
<path class="st0" d="M162.7,50.7c-0.4,1.8-0.5,3.6-0.3,5.4c0.1,1.7,1,3.3,2.4,4.2c1.5,0.9,3.2,1.7,4.8,2.5c0.9,0.4,1.7,1,2.5,1.7
	c0.7,0.8,1.3,1.7,1.5,2.8l-1.6,0.1c0.3-1.7,0.3-3.3,0.1-5c-0.1-1.6-0.7-3.1-1.7-4.4c-1.2-1.2-2.5-2.3-3.9-3.2
	c-1.5-1-2.5-2.6-2.9-4.3c0.6,1.6,1.9,2.9,3.4,3.7c1.6,0.8,3,1.8,4.4,3c1.3,1.4,2.1,3.2,2.3,5.1c0.3,1.8,0.3,3.6,0,5.4
	c0,0.5-0.5,0.8-0.9,0.7c-0.3,0-0.6-0.3-0.7-0.6l0,0c-0.2-0.7-0.6-1.4-1.1-2c-0.6-0.6-1.3-1.1-2-1.4c-1.7-0.9-3.3-1.8-4.8-2.9
	c-1.6-1.3-2.5-3.2-2.5-5.3C161.6,54.3,162,52.5,162.7,50.7z"/>
<path class="st0" d="M163.2,51.6c0.4,1.4,1,2.8,1.8,4c0.4,0.5,0.9,0.9,1.5,1.2c0.7,0.4,1.4,0.8,2,1.3c1.3,0.9,2.4,2.1,3.2,3.5
	s1.1,3,0.9,4.6c-0.4-1.4-1.1-2.7-2-3.9c-0.9-1.1-2-2.1-3.1-2.9c-0.6-0.4-1.2-0.8-1.8-1.2c-0.7-0.5-1.4-1.1-1.8-1.9
	C163.2,54.9,163,53.2,163.2,51.6z"/>
</svg>
