<?xml version="1.0" encoding="utf-8"?>
<!-- Generator: Adobe Illustrator 25.3.1, SVG Export Plug-In . SVG Version: 6.00 Build 0)  -->
<svg version="1.1" id="Layer_1" xmlns="http://www.w3.org/2000/svg" xmlns:xlink="http://www.w3.org/1999/xlink" x="0px" y="0px"
	 viewBox="0 0 795.4 799.9" style="enable-background:new 0 0 795.4 799.9;" xml:space="preserve">
<style type="text/css">
	.st0{fill:#433939;stroke:url(#SVGID_1_);stroke-width:10;}
	.st1{fill:none;stroke:#F9F8F8;stroke-width:27;}
</style>
<linearGradient id="SVGID_1_" gradientUnits="userSpaceOnUse" x1="332.6509" y1="475.1811" x2="490.1689" y2="270.6422" gradientTransform="matrix(1 0 0 -1 0 804.4241)">
	<stop  offset="2.257970e-03" style="stop-color:#45CECC"/>
	<stop  offset="1" style="stop-color:#FC4036"/>
</linearGradient>
<path class="st0" d="M554.1,293.7c-19.2,0-37.7-7.7-51.3-21.3c-13.6-13.6-21.3-32.2-21.3-51.5c0-1.3,0.1-2.8,0.2-4.6
	c0-0.3,0-0.6,0-0.9c0.1-2.1,0.2-4.4,0.2-6.7c-0.1-4.3-0.8-10-4.7-14c-3.8-3.8-9.6-4.9-14.1-5.3c-3.6-0.3-7.5-0.3-10.5-0.2
	c-0.9,0-1.7,0-2.5,0c-0.7,0-1.5,0-2.4,0c-2.9,0-6.6-0.1-10.1,0.2c-4.4,0.4-9.9,1.5-13.6,5.3c-3.9,3.9-4.6,9.7-4.7,14
	c-0.1,2.3,0.1,4.6,0.2,6.7c0,0.3,0,0.6,0,0.9c0.1,1.8,0.2,3.3,0.2,4.6v259.2c0,14.4-4.3,28.5-12.2,40.4c-8,12-19.3,21.3-32.6,26.8
	c-13.3,5.5-27.9,6.9-41.9,4.1c-14.1-2.8-27-9.7-37.2-19.9c-10.2-10.2-17.1-23.1-19.9-37.3c-2.8-14.1-1.4-28.7,4.1-42
	c5.5-13.3,14.8-24.7,26.7-32.7c11.9-8,26-12.3,40.3-12.3c1.2,0,2.4,0,3.9,0.1c0.6,0,1.1,0,1.7,0.1c2.1,0.1,4.5,0.1,6.9,0
	c4.4-0.2,10.3-1,14.1-4.9c3.9-3.9,4.7-9.6,4.9-14c0.1-2.3,0-4.7,0-6.8c0-0.5,0-1-0.1-1.5c-0.1-1.6-0.1-2.9-0.1-4.1
	c0-0.3,0-0.7,0-1.1c0-3.2,0-7.3-0.5-11.3c-0.6-4.3-1.9-9.4-5.5-13c-3.7-3.7-9-4.8-13.2-5.2c-3.2-0.3-6.6-0.2-9.5-0.2
	c-1,0-1.9,0-2.6,0c-26.6,0-52.5,7.9-74.6,22.7c-22.1,14.8-39.3,35.8-49.5,60.4c-10.2,24.6-12.8,51.7-7.6,77.8
	c5.2,26.1,18,50.1,36.8,68.9c18.8,18.8,42.7,31.6,68.8,36.8c26.1,5.2,53.1,2.5,77.6-7.7c24.5-10.2,45.5-27.4,60.3-49.6
	c14.8-22.1,22.6-48.2,22.6-74.8V334.2c21.6,14,46.8,21.4,72.6,21.3c1.4,0,2.9,0.1,4.8,0.2c0.2,0,0.4,0,0.6,0c2,0.1,4.3,0.3,6.6,0.2
	c4.2-0.1,9.9-0.7,13.8-4.6c3.7-3.7,5-9.3,5.5-13.8c0.5-4.2,0.5-8.7,0.5-11.9c0-0.4,0-0.7,0-1.1c0-0.3,0-0.7,0-1.1
	c0-3.2,0-7.3-0.5-11.3c-0.6-4.3-1.9-9.4-5.5-13.1l-3.5,3.5l3.5-3.5c-3.7-3.7-9.1-4.9-13.4-5.3c-3.4-0.3-7-0.3-9.9-0.2
	C555.7,293.6,554.9,293.7,554.1,293.7z"/>
<path class="st1" d="M397.5,21.7L397.5,21.7c209.9,0,380,170.1,380,380l0,0c0,209.9-170.1,380-380,380l0,0
	c-209.9,0-380-170.1-380-380l0,0C17.5,191.8,187.6,21.7,397.5,21.7z"/>
</svg>
