<?xml version="1.0" encoding="utf-8"?>
<!-- Generator: Adobe Illustrator 26.3.1, SVG Export Plug-In . SVG Version: 6.00 Build 0)  -->
<svg version="1.1" id="Layer_1" xmlns="http://www.w3.org/2000/svg" xmlns:xlink="http://www.w3.org/1999/xlink" x="0px" y="0px"
	 viewBox="0 0 174 58" style="enable-background:new 0 0 174 58;" xml:space="preserve">
<style type="text/css">
	.st0{fill:#F2F2F2;}
</style>
<g>
	<path class="st0" d="M41.21,48.45l0.75,0.77c-3.14,1.76-6.68,2.68-10.27,2.68c-11.68,0-21.55-9.37-21.55-20.46
		c0-11.09,9.87-20.46,21.55-20.46c4.14,0,8.12,1.2,11.56,3.46l-1.46,1.51c-4.09-3.05-8.95-4.33-13.74-3.59
		c-4.24,0.65-7.78,2.83-10.21,6.28c-2.92,4.15-3.96,9.84-2.85,15.61c2.1,10.92,10.67,17.77,20.35,16.28
		C37.41,50.21,39.38,49.51,41.21,48.45z M86.44,51.31h-5.37l-4.08-10.37l-0.94,0.43c-2.71,0.86-4.55,1.15-7.84,1.22
		c-3.59,0.09-6.89-0.47-10.5-1.73l-0.25-0.08l-0.02,0c-0.27-0.12-0.58-0.25-0.9-0.38l-0.69-0.28L51.33,51.3h-1.14l4.41-10.89
		l0.21-0.72l-1.1-0.44c-1.23-0.56-2.44-1.14-3.64-1.72l1.39-0.77c1.03,0.5,2.06,1,3.17,1.51l0.71,0.34l10.03-24.75l0.84-2h4.44
		l10.63,26.74l4.98,12.29L86.44,51.31z M76.74,40.04L66.32,13.89L56.28,39.05l0.7,0.27c2.59,1.02,6.68,2.24,11.44,2.24
		c2.96,0,4.71-0.26,7.22-1.06c0.07-0.03,0.23-0.09,0.44-0.18L76.74,40.04z"/>
</g>
<g>
	<path class="st0" d="M124.45,51.31h-5.2l-2.66-6.83l-0.82-1.96H93.2L89.6,51.3h-1.14l15.22-37.56l0.74-1.89h4.52l15.35,39.02
		L124.45,51.31z M115.39,41.48l-10.8-27.61L94.15,40.06l-0.53,1.42H115.39z"/>
</g>
<g>
	<path class="st0" d="M163.85,50.02l-0.69,1.07H130V11.54h4.7v38.48H163.85z M151.13,41.8V11.54h4.83V41.8H151.13z"/>
</g>
</svg>
