<?xml version="1.0" encoding="utf-8"?>
<!-- Generator: Adobe Illustrator 25.3.1, SVG Export Plug-In . SVG Version: 6.00 Build 0)  -->
<svg version="1.1" id="Layer_1" xmlns:serif="http://www.serif.com/"
	 xmlns="http://www.w3.org/2000/svg" xmlns:xlink="http://www.w3.org/1999/xlink" x="0px" y="0px" viewBox="0 0 774.2 768"
	 style="enable-background:new 0 0 774.2 768;" xml:space="preserve">
<style type="text/css">
	.st0{fill-rule:evenodd;clip-rule:evenodd;fill:#F9F8F8;}
</style>
<path class="st0" d="M387.1,0c211.9,0,384,172.1,384,384S599,768,387.1,768S3.1,595.9,3.1,384S175.2,0,387.1,0z M319.5,588.2
	c169.9,0,262.8-140.8,262.8-262.8c0-4,0-8-0.2-11.9c18-13,33.7-29.3,46.2-47.9c-16.5,7.3-34.3,12.3-53.1,14.6
	c19.2-11.5,33.7-29.5,40.6-51.1c-17.8,10.5-37.5,18.2-58.6,22.4c-16.9-18-40.8-29.1-67.4-29.1c-51,0-92.3,41.4-92.3,92.3
	c0,7.3,0.8,14.4,2.5,21.1c-76.8-3.8-144.8-40.6-190.4-96.6c-7.9,13.6-12.5,29.5-12.5,46.4c0,32,16.3,60.3,41.2,76.8
	c-15.1-0.4-29.3-4.6-41.8-11.5v1.1c0,44.8,31.8,82,74.1,90.6c-7.7,2.1-15.9,3.3-24.3,3.3c-5.9,0-11.7-0.6-17.4-1.7
	c11.7,36.8,45.8,63.4,86.2,64.2c-31.6,24.7-71.5,39.5-114.8,39.5c-7.5,0-14.8-0.4-22-1.3C218.7,572.9,267.4,588.2,319.5,588.2
	L319.5,588.2z"/>
</svg>
