<svg id="Layer_1" data-name="Layer 1" xmlns="http://www.w3.org/2000/svg" viewBox="0 0 288 288"><defs><style>.cls-1{fill:#d3ccc5;}</style></defs><path class="cls-1" d="M62.47,223.2a105.9,105.9,0,0,1-7.79-7.92c-1.19-1.41-2.47-2.78-3.63-4.22l-3.36-4.46a105.06,105.06,0,0,1-11-19.46l0,0c1.1.15,2.21.26,3.33.32A123.4,123.4,0,0,0,62.47,223.2Z"/><path class="cls-1" d="M40.17,98.8c-1.12.06-2.23.17-3.31.3A104.46,104.46,0,0,1,62.47,63.63,122.22,122.22,0,0,0,40.17,98.8Z"/><path class="cls-1" d="M245.23,186.05h3a103.22,103.22,0,0,1-21.58,32.25A122.24,122.24,0,0,0,245.23,186.05Z"/><path class="cls-1" d="M250,104.82v11.63a119.69,119.69,0,0,0-5.51-17.18,123.81,123.81,0,0,0-22.44-35.64A105,105,0,0,1,247.21,98.1Q248.71,101.4,250,104.82Z"/><path class="cls-1" d="M86.94,43.75s0,0,0,.06a1.19,1.19,0,0,1-.18.15c-.19.17-.38.36-.57.51s-.38.37-.58.54h0c-3.46,3-7.39,5.55-10.93,8.47C70.89,56.56,67.47,60,63.8,63.12c-.21.17-.59-.08-.4-.33,2.85-3.87,6.71-7.07,10.38-10.16,3.34-2.84,6.84-6,10.66-8.31a.22.22,0,0,1,.11,0l0,0,.09-.06v0L85,44v0a2.7,2.7,0,0,1,.34-.17v0c.38-.21.76-.42,1.14-.61a.16.16,0,0,1,.09,0C86.87,43.11,87.17,43.49,86.94,43.75Z"/><path class="cls-1" d="M183.09,37.56a.25.25,0,0,1-.34.21l-.57-.17c-.74-.21-1.48-.44-2.22-.67-8.31-2.6-15.87-5.6-24.74-5.4-.23,0-.44,0-.67,0s-.53,0-.8,0-.43,0-.66,0a.25.25,0,0,1-.12,0h0a.42.42,0,0,1-.12-.68.44.44,0,0,1,.15-.08,26,26,0,0,1,7.64-.49h.08a17.7,17.7,0,0,1,2.07.22h0c5.62.8,11.17,3,16.43,5.12.25.09.48.19.73.3a.15.15,0,0,1,.09,0h0a2.2,2.2,0,0,1,.21.09,3.34,3.34,0,0,1,.38.15.3.3,0,0,0,.11,0,0,0,0,0,1,0,0l.15.06c.67.26,1.32.53,2,.8,0,0,0,0,0,0A.25.25,0,0,1,183.09,37.56Z"/><path class="cls-1" d="M206.18,50.69c1.26,1.4,2.61,2.85,4,4.18C208.69,53.37,207.34,51.83,206.18,50.69Zm12.89,9,0,0a16,16,0,0,1-4.09-2,29.44,29.44,0,0,1,2.51,1.8,16.11,16.11,0,0,1-6.5-3.87A18.3,18.3,0,0,0,216,59.24l-.44-.06h0c-6.38-1.86-11.65-7.88-16.4-12-5.41-4.71-11.21-9.08-18.24-10.85,10.11,1,18,7.26,25.12,14.2a60,60,0,0,0-4.2-4.41c-5.89-5.27-12.58-9.16-20.43-10a30.35,30.35,0,0,1,21.78,10c2.38,2.54,4.48,5.35,6.88,7.88a23.57,23.57,0,0,0,4.83,3.61c-5.65-3.82-9.33-10.58-14.64-14.92-5.94-4.86-12.33-7.23-20.1-6.7,0,0-.06,0-.08,0H180a1.86,1.86,0,0,0-.34,0h-.38l.11.06a.77.77,0,0,1,.19.08h0a.93.93,0,0,1,.19.11,19,19,0,0,1,2.39,1.26c6,3.51,11.82,9.69,16.69,13.87,5.18,4.46,11.09,7.81,18.35,8.26a5.06,5.06,0,0,0,.55,0s0,0,0,0c.48,0,.95,0,1.43,0Zm-5.59-.85A26.13,26.13,0,0,1,207,56.6a45,45,0,0,1-9.88-7.28c-4.41-4-8.82-8.68-14.06-11.76a.26.26,0,0,0-.16-.33c7.83,2.74,14.08,8.67,20.34,14,3.24,2.79,7,6.23,11.19,7.77C214.13,59,213.78,58.93,213.48,58.88Z"/><path class="cls-1" d="M219.35,59.35c-8.61-3.13-12.46-12-19.38-17.37a27.66,27.66,0,0,0-19.91-6l-.67-.29h-.15a.41.41,0,0,0-.15.74c.3.15.59.32.87.49,13.51,7.68,22.29,23,39.28,23.32A.46.46,0,0,0,219.35,59.35ZM215,57.7a29.44,29.44,0,0,1,2.51,1.8.35.35,0,0,1,.11.1s.06,0,.08.08a1,1,0,0,0-.15-.1,5.41,5.41,0,0,0-1.47-.34h0l-.44-.06h0c-.34-.06-.7-.09-1-.13a.07.07,0,0,0,0,0c-.34,0-.69-.1-1-.15A26.13,26.13,0,0,1,207,56.6a45,45,0,0,1-9.88-7.28c-4.41-4-8.82-8.68-14.06-11.76-.38-.23-.76-.44-1.14-.65l0,0c-.31-.17-.65-.34-1-.49l-.12-.06s0,0,0,0l0,0,0,0a3,3,0,0,1-.36-.17c.34,0,.66,0,1,0h0a30.35,30.35,0,0,1,21.78,10c2.38,2.54,4.48,5.35,6.88,7.88a23.57,23.57,0,0,0,4.83,3.61A.07.07,0,0,0,215,57.7Z"/><path class="cls-1" d="M206,50.54c-7.13-6.94-15-13.15-25.12-14.2h-.12c-.4-.06-.8-.09-1.19-.11h0l-.31,0h0a.1.1,0,0,1-.07-.1,0,0,0,0,1,0,0s0,0,0,0a0,0,0,0,1,0,0,0,0,0,0,1,0,0h.08l.64,0h.08l0,0h0a9,9,0,0,1,1.27.09h0c7.85.82,14.54,4.71,20.43,10A60,60,0,0,1,206,50.54Z"/><path class="cls-1" d="M210.19,54.87c-1.41-1.33-2.76-2.78-4-4.18C207.34,51.83,208.69,53.37,210.19,54.87Z"/><path class="cls-1" d="M219.29,59.79s0,.08-.06.08h-.32a5.15,5.15,0,0,1-1.1-.12s0,0,0,0a6.11,6.11,0,0,1-1.22-.32h0l-.49-.19h0A18.12,18.12,0,0,1,211,55.63a16,16,0,0,0,6.5,3.87,5,5,0,0,0,1.14.19,1.52,1.52,0,0,0,.43,0,.65.65,0,0,0,.19,0A.05.05,0,0,1,219.29,59.79Z"/><path class="cls-1" d="M219.29,59.79s0,.08-.06.08h-.32a9.48,9.48,0,0,1-1.69-.14,13.54,13.54,0,0,1-2.72-.68l0,0c-4.22-1.54-7.94-5-11.19-7.77-6.25-5.36-12.5-11.29-20.33-14-.32-.13-.65-.22-1-.32,0,0,0,0,0,0a15.72,15.72,0,0,0-2.12-.55c-.18-.06-.35-.09-.52-.13h0a.1.1,0,0,1-.07-.1,0,0,0,0,1,0,0s0,0,0,0a.11.11,0,0,1,.09,0h0l.15,0a.33.33,0,0,1,.15,0l.33.05c.22.06.45.1.68.15a.15.15,0,0,0,.08,0l0,0a.07.07,0,0,1,.06,0h.08c7,1.77,12.82,6.14,18.24,10.85,4.75,4.11,10,10.13,16.4,12h0c.31.1.63.17.95.25h0c.33.06.63.11.95.15,0,0,0,0,.08,0a5.56,5.56,0,0,0,1,.09,1.52,1.52,0,0,0,.43,0l0,0h.17A.05.05,0,0,1,219.29,59.79Z"/><path class="cls-1" d="M143.82,29.14a.18.18,0,0,1,0,.1.3.3,0,0,1,0,.11s0,0,0,.06a.38.38,0,0,1-.09.09h0a.32.32,0,0,1-.21.1h-2.62a112.5,112.5,0,0,0-14.69.43H126c-.3,0-.63.08-.93.14h0a2.13,2.13,0,0,1-.25,0l-.51.08-.19,0s0,0,0,0l-.26.06h-.1a4.89,4.89,0,0,0-.74.16h0a77,77,0,0,0-16.25,5.28s0,0,0,0l0,0-.08,0c-1.25.54-2.51,1.09-3.78,1.66a.33.33,0,0,1-.42-.13.31.31,0,0,1,.12-.39,54.09,54.09,0,0,1,8.81-4.54l.06,0c1.06-.42,2.13-.82,3.23-1.18,0,0,0,0,0,0h0s0,0,0,0a0,0,0,0,0,0,0c9.31-3.17,19.78-4.29,28.79-2.47l.06,0a.3.3,0,0,1,.21.21A.56.56,0,0,1,143.82,29.14Z"/><path class="cls-1" d="M175.42,52.09h0c-.19,0-.34-.09-.53-.13-7.87-2.05-16.25-10.28-23.09-14.63-6.38-4-19.08-6.58-26.68-7.16h0l-1-.06h0s-.08,0-.12,0c-.45,0-.89-.06-1.29-.06.17,0,.34.1.51.15h0a5,5,0,0,1,.51.16h.08l.74.25a.07.07,0,0,1,0,0c6.23,2.21,10.51,6.8,15,10.58C146.5,47.06,162,54.85,174.7,52.34h.05a2,2,0,0,0,.38-.08h0l.54-.11ZM125,30.43c10.41,1.52,19.27,6.12,28,12.09,5.43,3.72,11.95,8.45,18.79,9.57-17.86-1-29.3-17.82-46.36-21.53h0A1.55,1.55,0,0,0,125,30.43Zm24.68,6.27c4.39,2.3,8.19,5.74,12.18,8.65a76.12,76.12,0,0,0,11.31,6.46c-8.59-1.12-16.23-7.3-23.19-12a58.61,58.61,0,0,0-23.16-9.37C134.62,31.29,142.93,33.15,149.69,36.7ZM171.6,52.34a29.53,29.53,0,0,1-3.52,0,39.32,39.32,0,0,1-9.06-1.6,56.27,56.27,0,0,1-14.25-6.42c-6.44-4-11.31-10.09-18.13-13.22,16.44,4.44,27.92,20.59,45.66,21.16Z"/><path class="cls-1" d="M175.8,51.71C165,48.88,158.13,39.15,148.08,34.9a67.7,67.7,0,0,0-22-4.87H126c-.83,0-1.63-.07-2.45-.07-.26-.1-.53-.17-.8-.25a.35.35,0,0,0-.19.68,2.54,2.54,0,0,1,.38.16h0c9.77,3.38,16.1,12.14,25.18,16.89,8.48,4.41,18.13,7,27.63,5.13A.45.45,0,0,0,175.8,51.71Zm-16.78-1a56.27,56.27,0,0,1-14.25-6.42c-6.44-4-11.31-10.09-18.13-13.22a12.59,12.59,0,0,0-1.25-.56h0a1.55,1.55,0,0,0-.36-.13,1.44,1.44,0,0,0-.31-.13c.71.06,1.41.11,2.13.19,7.79.8,16.1,2.66,22.86,6.21,4.39,2.3,8.19,5.74,12.18,8.65a76.12,76.12,0,0,0,11.31,6.46l.55.28.17.06h0a2.11,2.11,0,0,0,.38,0c-.29,0-.71,0-1.31.06l-.57,0a.13.13,0,0,1-.12,0l-.7.06a29.53,29.53,0,0,1-3.52,0A39.32,39.32,0,0,1,159,50.76Z"/><path class="cls-1" d="M175.68,52.23l-.53,0h0c-.36,0-.7,0-1.06,0,0,0-.1,0-.14,0a12.82,12.82,0,0,1-1.52,0,.11.11,0,0,1-.11,0c-17.75-.57-29.23-16.72-45.66-21.16-.67-.19-1.33-.35-2-.48a0,0,0,0,0,0,0l-.78-.15s-.06,0-.06-.08,0,0,0,0a.09.09,0,0,1,.08-.08,1.17,1.17,0,0,1,.26,0s0,0,0,0c.42.07.84.17,1.23.25h0c17.07,3.7,28.51,20.5,46.37,21.52h0a18.41,18.41,0,0,0,2.1.06h0c.5,0,1,0,1.49-.06h.28C175.78,52.06,175.78,52.21,175.68,52.23Z"/><path class="cls-1" d="M175.68,52.3c-.3,0-.63,0-.93,0h-.06a3.18,3.18,0,0,1-.62,0s-.1,0-.14,0c-.32,0-.62,0-1,0a11.74,11.74,0,0,1-1.19-.16h0C164.91,51,158.39,46.24,153,42.52c-8.69-6-17.54-10.57-28-12.09l-.87-.11s0,0,0,0a1.17,1.17,0,0,0-.26,0,5.25,5.25,0,0,0-.59-.08h-.16l-.39,0a.11.11,0,0,1-.08-.17.12.12,0,0,1,.08,0c.43,0,.87.07,1.29.15,0,0,.07,0,.11,0h0s0,0,0,0l.66.07c.67.08,1.33.18,2,.29A58.61,58.61,0,0,1,150,39.86c7,4.65,14.59,10.83,23.18,12a15.6,15.6,0,0,0,1.69.15c.27,0,.55,0,.82,0A.15.15,0,0,1,175.68,52.3Z"/><path class="cls-1" d="M198.2,22.43c-.44-.17-.89-.34-1.33-.49-.66-.23-1.31-.46-2-.65a.12.12,0,0,0-.08,0c-11.34-3.65-22.61-3.93-34,1.2-4.92,2.24-11.33,5.53-17,6.52-.53.09-1.06.17-1.58.23l-.79,0a.13.13,0,0,1-.12,0,.65.65,0,0,1-.19,0H141a.93.93,0,0,1-.23,0l.25.06h0l.16.06h0l.74.19h0a44.13,44.13,0,0,0,10.83,1.33,55.52,55.52,0,0,0,7.79-.57h.07l.55-.1c13.89-2.15,20-6.54,28.09-7.71a28.58,28.58,0,0,1,7.12-.19,13.14,13.14,0,0,1,1.37.17h0c.32,0,.65.07,1,.13Zm-33.12-1.1a45.23,45.23,0,0,1,23.34-1.14,49.79,49.79,0,0,0-18.64,2.36c-8.65,2.68-16.93,6.27-26,6.68a.13.13,0,0,0,0-.09C151.33,28,157.92,23.72,165.08,21.33Zm11.29,4.58a84.68,84.68,0,0,1-15.26,3.86A55.06,55.06,0,0,1,146,29.69c6.9,0,13.65-1.63,20.35-3.32a118.55,118.55,0,0,1,21-3.73A87,87,0,0,0,176.37,25.91Zm-31.45,3.65-1.2-.15s0,0,0-.06c7.87-.29,15.17-3,22.67-5.4,9.71-3.17,18.7-4,28.41-2.11l.06,0-1.26,0C177.07,20.86,161.43,30,144.92,29.56Z"/><path class="cls-1" d="M199,22.17c-9.37-3.5-19.25-5.29-29.18-3.18-9.18,1.94-17.05,8.06-26.21,9.79a16.77,16.77,0,0,1-2.16.32c-.21,0-.4-.06-.61-.07s-.34.43-.08.53l.06,0h0a33.37,33.37,0,0,0,12.14,2h0c.25,0,.51,0,.78,0s.53,0,.8,0,.43,0,.66,0a54.91,54.91,0,0,0,7.54-1h0a84.19,84.19,0,0,0,9.69-2.39c8.95-2.74,16.59-6.38,26.21-5A.51.51,0,0,0,199,22.17Zm-22.59,3.74a84.68,84.68,0,0,1-15.26,3.86A55.06,55.06,0,0,1,146,29.69H146l-1-.13-1.2-.15a2.33,2.33,0,0,1-.36,0h0l-.56-.08.25,0a5.49,5.49,0,0,0,.8-.11c7.51-1.1,14.1-5.42,21.26-7.81a45.23,45.23,0,0,1,23.34-1.14.06.06,0,0,1,.05,0,64.65,64.65,0,0,1,6.37,1.63l.06,0-1.26,0a35.38,35.38,0,0,0-6.21.76A87,87,0,0,0,176.37,25.91Z"/><path class="cls-1" d="M199,22.68a.15.15,0,0,1,0,.08.07.07,0,0,1-.08,0h0l-1-.24h0c-.59-.15-1.18-.31-1.75-.42h0l-.3-.06-.86-.19-.06,0c-9.71-1.92-18.69-1.06-28.4,2.11-7.51,2.44-14.8,5.11-22.67,5.4a2.68,2.68,0,0,1-.4,0h0c-.45,0-.93,0-1.4,0h-.21c-.21,0-.44,0-.65,0h-.28a0,0,0,0,1,0,0s0-.06,0-.06a4.17,4.17,0,0,0,.5,0,.11.11,0,0,0,.11,0q.82,0,1.62,0h.78c9-.42,17.33-4,26-6.69a49.84,49.84,0,0,1,18.64-2.36.07.07,0,0,1,.06,0,36.61,36.61,0,0,1,6.35,1.06.11.11,0,0,1,.07,0,34.43,34.43,0,0,1,4,1.26s.06,0,.08.05S199,22.64,199,22.68Z"/><path class="cls-1" d="M199,22.68a.15.15,0,0,1,0,.08.07.07,0,0,1-.08,0l0,0h0c-.5-.05-1-.09-1.47-.11a61.15,61.15,0,0,0-8-.13c-.62,0-1.27.05-1.9.09a118.44,118.44,0,0,0-21,3.73c-6.71,1.69-13.45,3.32-20.35,3.32h-.1c-.91,0-1.82,0-2.73-.09-.67,0-1.31-.1-2-.19h0l-.42-.06h0a0,0,0,0,1,0,0s0-.06,0-.06a.93.93,0,0,0,.23,0l.69.1h.21c.57.07,1.12.11,1.69.13h0c.43,0,.85.06,1.29.06,16.51.42,32.15-8.7,48.72-7.68.61,0,1.19.08,1.8.15l.31,0,.3.06h0c.72.08,1.41.17,2.13.32.23,0,.43.08.66.12,0,0,.06,0,.08.05S199,22.64,199,22.68Z"/><path class="cls-1" d="M144.1,16.77c-.22,0-.41,0-.64,0h0c-.4,0-.78,0-1.18,0h0a93.77,93.77,0,0,0-32.62,5.63C99.56,26,89.49,34,84.86,43.79a1.69,1.69,0,0,0-.19.38v0a1.79,1.79,0,0,0-.19.42s0,0,0,0a1.69,1.69,0,0,0-.17.36l.19-.06.11,0c.25-.08.51-.13.76-.23h0a4.81,4.81,0,0,0,.8-.23,92.76,92.76,0,0,0,16.23-7c2.94-1.53,5.94-3.23,8.93-4.92l0,0c10.63-6,21.32-12.37,30.86-15.17l.15-.06h.06l.61-.18c.36-.09.7-.19,1-.26l.08,0ZM86.55,43.18a.18.18,0,0,0-.1,0c-.38.19-.76.4-1.14.61,5.19-7.37,14-12.39,21.91-16.25a108.65,108.65,0,0,1,31.32-9.88C119.65,21.86,102.4,32.33,86.55,43.18Zm50.24-25.8a101.3,101.3,0,0,0-29.85,9.73c-7.43,3.72-15.79,8.47-21.06,15.27C96.16,24.94,117.12,18.27,136.79,17.38Zm-21.43,12.2c-9.07,5.15-18.08,10.18-27.8,13.92,6.59-3.78,12.76-8.49,19.38-12.21,9.65-5.46,19.85-10.24,30.63-13C129.82,21.25,122.52,25.51,115.36,29.58Z"/><path class="cls-1" d="M144.18,16.22c-21.78-.57-50.32,5.93-59.74,28.1a1.07,1.07,0,0,0-.13.31.13.13,0,0,0,0,.09s0,0,0,0h0a.28.28,0,0,0,.15.53c.4-.07.8-.17,1.2-.26h0c7.39-1.66,14.35-5.31,21-9.11l.07,0,0,0a0,0,0,0,0,0,0L113.34,32c.42-.25.86-.48,1.27-.72,0,0,0,0,0,0h0s0,0,0,0a0,0,0,0,0,0,0c9.42-5.43,19-11.17,29.6-13.93A.55.55,0,0,0,144.18,16.22Zm-6.61,2.11c-7.75,2.92-15,7.18-22.21,11.25-9.07,5.15-18.08,10.18-27.8,13.92l0,0-.57.23c-.69.27-1.39.52-2.09.76l-.19.06a.5.5,0,0,1,.07-.13v0c.08-.14.14-.27.23-.4v0c.27-.55.59-1.08.91-1.62,10.28-17.44,31.24-24.11,50.91-25,1.2,0,2.41-.08,3.61-.1a2.62,2.62,0,0,1-.49.19c-.76.27-1.54.53-2.3.84A.07.07,0,0,0,137.57,18.33Z"/><path class="cls-1" d="M144.29,16.87a.14.14,0,0,1-.11.07h-.06a1.14,1.14,0,0,1-.27,0,.13.13,0,0,1-.09,0c-.23,0-.48.06-.7.08l-1.83.22-1.33.19c-.46.06-.91.14-1.37.21a108.59,108.59,0,0,0-31.31,9.88c-7.89,3.86-16.72,8.88-21.91,16.25v0a3.9,3.9,0,0,0-.25.36v0a2.28,2.28,0,0,0-.21.3,3.66,3.66,0,0,0-.26.42,1.15,1.15,0,0,0-.14.19c-.13.21-.49,0-.34-.21a.7.7,0,0,1,.06-.09s0,0,0,0a.07.07,0,0,1,0-.06.26.26,0,0,1,.07-.11,1.91,1.91,0,0,1,.25-.36l0,0a1.83,1.83,0,0,1,.28-.46c.33-.47.67-.95,1-1.41,5.26-6.8,13.62-11.55,21.05-15.27a101.39,101.39,0,0,1,29.85-9.73c1.81-.27,3.63-.5,5.46-.65h0c.61-.05,1.21-.11,1.82-.15h.1A.16.16,0,0,1,144.29,16.87Z"/><path class="cls-1" d="M144.29,16.87l-.08,0-.36.06a.13.13,0,0,1-.09,0c-.44.08-.88.15-1.31.25a.07.07,0,0,0-.06,0c-1.61.3-3.21.66-4.79,1.06l0,0c-10.77,2.72-21,7.5-30.63,13C100.32,35,94.15,39.72,87.55,43.51h0a8.62,8.62,0,0,1-.78.44c-.45.27-.91.51-1.36.74h0c-.31.19-.63.34-.95.52a.23.23,0,0,1-.23-.4s0,0,0,0a1.43,1.43,0,0,1,.26-.19c.1-.06.17-.12.27-.17v0l.32-.21v0c.5-.32,1-.67,1.48-1,15.85-10.85,33.11-21.32,52-25.5l1.87-.4h0c1-.19,2-.38,3-.53h0l.69-.11C144.27,16.6,144.35,16.77,144.29,16.87Z"/><path class="cls-1" d="M221.32,224.23c-2.89,3.86-6.78,7-10.47,10.07-3.36,2.77-6.89,5.91-10.73,8.15v0l-.1.06a.76.76,0,0,1-.13.07,2.27,2.27,0,0,1-.31.17l-.32.18c-.38.22-.78.43-1.18.62,0,0,0,0-.07,0h0c-.32.1-.63-.26-.42-.53a.1.1,0,0,1,0-.08c.06,0,.09-.09.15-.13s.38-.36.59-.53h0l.57-.51c3.51-3,7.47-5.48,11.06-8.37,3.76-3.05,7.22-6.42,10.9-9.53C221.11,223.74,221.51,224,221.32,224.23Z"/><path class="cls-1" d="M131.58,255.2a.44.44,0,0,1-.15.08,26.48,26.48,0,0,1-7.62.43c-.76-.07-1.54-.15-2.3-.26-5.61-.88-11.14-3.1-16.38-5.3h0l-.63-.27a0,0,0,0,1,0,0h0a.15.15,0,0,0-.09,0h-.06a.53.53,0,0,0-.17-.08,2.37,2.37,0,0,1-.32-.15l-.15-.06s0,0,0,0h0l-2-.85s-.06,0-.08-.08h0a.3.3,0,0,1-.09-.29.26.26,0,0,1,.36-.22l.51.15a0,0,0,0,0,0,0c.76.23,1.52.45,2.26.7a0,0,0,0,1,0,0c8.13,2.62,15.54,5.64,24.23,5.64h.07c.61,0,1.22,0,1.83-.05l.64,0a.3.3,0,0,1,.14,0A.4.4,0,0,1,131.58,255.2Z"/><path class="cls-1" d="M73.84,230.08c1.67,1.64,3.19,3.4,4.48,4.71C76.9,233.2,75.39,231.54,73.84,230.08Zm0,0c1.67,1.64,3.19,3.4,4.48,4.71C76.9,233.2,75.39,231.54,73.84,230.08Zm0,0c1.67,1.64,3.19,3.4,4.48,4.71C76.9,233.2,75.39,231.54,73.84,230.08Zm0,0c1.67,1.64,3.19,3.4,4.48,4.71C76.9,233.2,75.39,231.54,73.84,230.08Zm0,0c1.67,1.64,3.19,3.4,4.48,4.71C76.9,233.2,75.39,231.54,73.84,230.08Zm0,0c1.67,1.64,3.19,3.4,4.48,4.71C76.9,233.2,75.39,231.54,73.84,230.08Zm0,0c1.67,1.64,3.19,3.4,4.48,4.71C76.9,233.2,75.39,231.54,73.84,230.08Zm0,0c1.67,1.64,3.19,3.4,4.48,4.71C76.9,233.2,75.39,231.54,73.84,230.08Zm0,0c1.67,1.64,3.19,3.4,4.48,4.71C76.9,233.2,75.39,231.54,73.84,230.08Zm0,0c1.67,1.64,3.19,3.4,4.48,4.71C76.9,233.2,75.39,231.54,73.84,230.08Zm0,0c1.67,1.64,3.19,3.4,4.48,4.71C76.9,233.2,75.39,231.54,73.84,230.08Zm0,0c1.67,1.64,3.19,3.4,4.48,4.71C76.9,233.2,75.39,231.54,73.84,230.08Zm0,0c1.67,1.64,3.19,3.4,4.48,4.71C76.9,233.2,75.39,231.54,73.84,230.08Zm0,0c1.67,1.64,3.19,3.4,4.48,4.71C76.9,233.2,75.39,231.54,73.84,230.08Zm0,0c1.67,1.64,3.19,3.4,4.48,4.71C76.9,233.2,75.39,231.54,73.84,230.08Zm0,0c1.67,1.64,3.19,3.4,4.48,4.71C76.9,233.2,75.39,231.54,73.84,230.08Zm0,0c1.67,1.64,3.19,3.4,4.48,4.71C76.9,233.2,75.39,231.54,73.84,230.08Zm0,0c1.67,1.64,3.19,3.4,4.48,4.71C76.9,233.2,75.39,231.54,73.84,230.08Zm0,0c1.67,1.64,3.19,3.4,4.48,4.71C76.9,233.2,75.39,231.54,73.84,230.08Zm0,0c1.67,1.64,3.19,3.4,4.48,4.71C76.9,233.2,75.39,231.54,73.84,230.08Zm0,0c1.67,1.64,3.19,3.4,4.48,4.71C76.9,233.2,75.39,231.54,73.84,230.08Zm0,0c1.67,1.64,3.19,3.4,4.48,4.71C76.9,233.2,75.39,231.54,73.84,230.08Zm0,0c1.67,1.64,3.19,3.4,4.48,4.71C76.9,233.2,75.39,231.54,73.84,230.08Zm0,0c1.67,1.64,3.19,3.4,4.48,4.71C76.9,233.2,75.39,231.54,73.84,230.08Zm0,0c1.67,1.64,3.19,3.4,4.48,4.71C76.9,233.2,75.39,231.54,73.84,230.08Zm0,0c1.67,1.64,3.19,3.4,4.48,4.71C76.9,233.2,75.39,231.54,73.84,230.08Zm0,0c1.67,1.64,3.19,3.4,4.48,4.71C76.9,233.2,75.39,231.54,73.84,230.08Zm0,0c1.67,1.64,3.19,3.4,4.48,4.71C76.9,233.2,75.39,231.54,73.84,230.08Zm0,0c1.67,1.64,3.19,3.4,4.48,4.71C76.9,233.2,75.39,231.54,73.84,230.08Zm0,0c1.67,1.64,3.19,3.4,4.48,4.71C76.9,233.2,75.39,231.54,73.84,230.08Zm31.24,19.63a.71.71,0,0,1-.18-.08.66.66,0,0,1-.15-.07,26.13,26.13,0,0,1-2.49-1.33,0,0,0,0,1,0,0c-5.92-3.59-11.68-9.79-16.49-14-5.21-4.59-11.17-8-18.56-8.47a3.31,3.31,0,0,0-.44,0c-.42,0-.84,0-1.27,0a1.07,1.07,0,0,1,.22.1c8.17,2.81,12.13,11.78,18.59,17.14,5.91,4.94,12.27,7.37,20,6.91h0l0,0h.44a2.17,2.17,0,0,0,.36,0ZM71.21,226.64A26.68,26.68,0,0,1,77.64,229a43.72,43.72,0,0,1,9.8,7.37c4.37,4.09,8.72,8.78,13.93,11.91a.3.3,0,0,0,.09.29c-7.77-2.85-13.94-8.8-20.14-14.21-3.21-2.83-6.93-6.31-11.15-7.89Zm10.17,12.83c-2.36-2.59-4.43-5.4-6.8-8a29.17,29.17,0,0,0-3.29-3.1c-1.18-.95-2.87-1.54-4.05-2.41a15.69,15.69,0,0,1,6.43,3.91,17.4,17.4,0,0,0-5.06-3.65l.51.08c6.37,1.9,11.6,8,16.31,12.14,5.38,4.77,11.15,9.2,18.16,11-10.11-1.1-17.93-7.41-25-14.44,1.5,1.71,2.91,3.31,4.16,4.46,5.91,5.36,12.6,9.33,20.5,10.19A30.34,30.34,0,0,1,81.38,239.47Zm-3.06-4.68c-1.42-1.59-2.93-3.25-4.48-4.71C75.51,231.72,77,233.48,78.32,234.79Zm-4.48-4.71c1.67,1.64,3.19,3.4,4.48,4.71C76.9,233.2,75.39,231.54,73.84,230.08Zm0,0c1.67,1.64,3.19,3.4,4.48,4.71C76.9,233.2,75.39,231.54,73.84,230.08Zm0,0c1.67,1.64,3.19,3.4,4.48,4.71C76.9,233.2,75.39,231.54,73.84,230.08Zm0,0c1.67,1.64,3.19,3.4,4.48,4.71C76.9,233.2,75.39,231.54,73.84,230.08Zm0,0c1.67,1.64,3.19,3.4,4.48,4.71C76.9,233.2,75.39,231.54,73.84,230.08Zm0,0c1.67,1.64,3.19,3.4,4.48,4.71C76.9,233.2,75.39,231.54,73.84,230.08Zm0,0c1.67,1.64,3.19,3.4,4.48,4.71C76.9,233.2,75.39,231.54,73.84,230.08Zm0,0c1.67,1.64,3.19,3.4,4.48,4.71C76.9,233.2,75.39,231.54,73.84,230.08Zm0,0c1.67,1.64,3.19,3.4,4.48,4.71C76.9,233.2,75.39,231.54,73.84,230.08Zm0,0c1.67,1.64,3.19,3.4,4.48,4.71C76.9,233.2,75.39,231.54,73.84,230.08Zm0,0c1.67,1.64,3.19,3.4,4.48,4.71C76.9,233.2,75.39,231.54,73.84,230.08Zm0,0c1.67,1.64,3.19,3.4,4.48,4.71C76.9,233.2,75.39,231.54,73.84,230.08Zm0,0c1.67,1.64,3.19,3.4,4.48,4.71C76.9,233.2,75.39,231.54,73.84,230.08Zm0,0c1.67,1.64,3.19,3.4,4.48,4.71C76.9,233.2,75.39,231.54,73.84,230.08Zm0,0c1.67,1.64,3.19,3.4,4.48,4.71C76.9,233.2,75.39,231.54,73.84,230.08Zm0,0c1.67,1.64,3.19,3.4,4.48,4.71C76.9,233.2,75.39,231.54,73.84,230.08Zm0,0c1.67,1.64,3.19,3.4,4.48,4.71C76.9,233.2,75.39,231.54,73.84,230.08Zm0,0c1.67,1.64,3.19,3.4,4.48,4.71C76.9,233.2,75.39,231.54,73.84,230.08Zm0,0c1.67,1.64,3.19,3.4,4.48,4.71C76.9,233.2,75.39,231.54,73.84,230.08Zm0,0c1.67,1.64,3.19,3.4,4.48,4.71C76.9,233.2,75.39,231.54,73.84,230.08Zm0,0c1.67,1.64,3.19,3.4,4.48,4.71C76.9,233.2,75.39,231.54,73.84,230.08Zm0,0c1.67,1.64,3.19,3.4,4.48,4.71C76.9,233.2,75.39,231.54,73.84,230.08Zm0,0c1.67,1.64,3.19,3.4,4.48,4.71C76.9,233.2,75.39,231.54,73.84,230.08Zm0,0c1.67,1.64,3.19,3.4,4.48,4.71C76.9,233.2,75.39,231.54,73.84,230.08Zm0,0c1.67,1.64,3.19,3.4,4.48,4.71C76.9,233.2,75.39,231.54,73.84,230.08Zm0,0c1.67,1.64,3.19,3.4,4.48,4.71C76.9,233.2,75.39,231.54,73.84,230.08Zm0,0c1.67,1.64,3.19,3.4,4.48,4.71C76.9,233.2,75.39,231.54,73.84,230.08Zm0,0c1.67,1.64,3.19,3.4,4.48,4.71C76.9,233.2,75.39,231.54,73.84,230.08Zm0,0c1.67,1.64,3.19,3.4,4.48,4.71C76.9,233.2,75.39,231.54,73.84,230.08Zm0,0c1.67,1.64,3.19,3.4,4.48,4.71C76.9,233.2,75.39,231.54,73.84,230.08Z"/><path class="cls-1" d="M105.38,249.42c-.29-.15-.55-.32-.84-.47a0,0,0,0,0,0,0c-13.43-7.81-22.06-23.24-39-23.71-.55,0-.59.74-.14.91,8.59,3.21,12.37,12.1,19.21,17.56a27.68,27.68,0,0,0,19.9,6.17h0a0,0,0,0,0,0,0,5.3,5.3,0,0,0,.59.27h0C105.51,250.26,105.74,249.61,105.38,249.42Zm-30.8-17.91a29.17,29.17,0,0,0-3.29-3.1c-1.18-.95-2.87-1.54-4.05-2.41l-.13-.12a.47.47,0,0,1-.15-.13.66.66,0,0,0,.23.15,5.3,5.3,0,0,0,1.42.36l.51.08,1,.13,1,.17A26.68,26.68,0,0,1,77.64,229a43.72,43.72,0,0,1,9.8,7.37c4.37,4.09,8.72,8.78,13.93,11.91l1.1.63c.4.21.8.42,1.2.59,0,0,0,0,.06,0s0,0,.07,0a2.52,2.52,0,0,0,.33.15c-.31,0-.59,0-.9,0a30.34,30.34,0,0,1-21.85-10.24C79,236.88,77,234.07,74.58,231.51Z"/><path class="cls-1" d="M73.66,229.91A15.66,15.66,0,0,0,67.24,226a5.71,5.71,0,0,0-1.14-.21,2.68,2.68,0,0,0-.4,0,.9.9,0,0,0-.23,0,.07.07,0,1,1,0-.13h.36a3.46,3.46,0,0,1,.46,0,2.57,2.57,0,0,1,.46.07.38.38,0,0,1,.19,0h0a4.78,4.78,0,0,1,1.09.3,1.47,1.47,0,0,1,.28.08l.29.13A17.5,17.5,0,0,1,73.66,229.91Z"/><path class="cls-1" d="M78.32,234.79c-1.29-1.31-2.82-3.07-4.49-4.71C75.39,231.54,76.89,233.2,78.32,234.79Z"/><path class="cls-1" d="M105.26,249.82s0,0-.06,0h0l-.12,0h-.13l-.47,0h-.14c-.36,0-.7-.06-1.06-.1-7.91-.86-14.6-4.83-20.5-10.18-1.26-1.16-2.66-2.76-4.17-4.47,7.09,7,14.92,13.34,25,14.44h0s0,0,0,0l0,0a7,7,0,0,0,1.23.13l.19,0h.1v0A.09.09,0,0,1,105.26,249.82Z"/><path class="cls-1" d="M105.26,249.82s0,0-.06,0h0l-.12,0h0l-.18-.05-.28-.06-.82-.19a.1.1,0,0,0-.07,0s0,0,0,0h0c-7-1.82-12.79-6.25-18.17-11-4.71-4.16-9.93-10.24-16.3-12.14-.27-.08-.53-.15-.8-.21a1.47,1.47,0,0,0-.28-.08c-.29-.05-.57-.11-.86-.15l-.07,0c-.33,0-.67-.07-1-.09a2.68,2.68,0,0,0-.4,0,.9.9,0,0,0-.23,0,.07.07,0,1,1,0-.13h.36a3.46,3.46,0,0,1,.46,0,5.16,5.16,0,0,1,.89.09,12.35,12.35,0,0,1,3,.74c4.21,1.58,7.94,5.06,11.15,7.89,6.19,5.41,12.37,11.36,20.14,14.21h0a8.25,8.25,0,0,0,1,.34,17.51,17.51,0,0,0,2.28.65c.11,0,.23.06.34.09l.11,0A.09.09,0,0,1,105.26,249.82Z"/><path class="cls-1" d="M182,249.6a52.18,52.18,0,0,1-8.78,4.4s0,0,0,0c-1.1.44-2.24.84-3.38,1.24l0,0c-9.35,3.08-19.85,4.1-28.84,2.18l-.06,0a.35.35,0,0,1-.23-.21.66.66,0,0,1,0-.15.1.1,0,0,1,0-.07.45.45,0,0,1,0-.16s0,0,0,0a.24.24,0,0,1,.1-.1.32.32,0,0,1,.24-.09h.29l1.23,0h1.16a106.25,106.25,0,0,0,14.6-.32c.32,0,.66-.06,1-.11h0l.12,0,.11,0c.23,0,.48-.06.7-.11h.06l.27,0h0l.11,0c.25,0,.49-.1.74-.13a80.63,80.63,0,0,0,16.49-5.19,0,0,0,0,1,0,0c1.26-.51,2.49-1.05,3.75-1.6a.3.3,0,0,1,.4.14A.27.27,0,0,1,182,249.6Z"/><path class="cls-1" d="M161.21,256.23a.07.07,0,0,0-.06,0c-.17,0-.34-.1-.5-.15l-.09,0h0c-.25-.08-.46-.17-.68-.25l0,0c-6.21-2.26-10.45-6.92-14.9-10.73-6.86-5.93-22.34-13.89-35.11-11.44h0l-.29.05s0,0,0,0a4.35,4.35,0,0,0-.52.1l.19,0h0a3.48,3.48,0,0,1,.44.1c7.9,2.05,16.26,10.43,23.12,14.9,6.31,4.1,19,6.76,26.55,7.41h0c.3,0,.59,0,.87,0a.07.07,0,0,1,.06,0h.21c.45,0,.89.06,1.29.08Zm-1.92-.29c-10.34-1.63-19.12-6.31-27.73-12.33-5.41-3.8-11.91-8.63-18.79-9.77,17.88,1.14,29.15,18,46.14,22h0A1.69,1.69,0,0,0,159.29,255.94ZM113,233.62a29.36,29.36,0,0,1,3.51,0,40.37,40.37,0,0,1,9,1.69,57.11,57.11,0,0,1,14.19,6.55c6.37,4,11.14,10.15,17.88,13.38-16.28-4.64-27.61-20.79-45.24-21.59C112.62,233.63,112.83,233.63,113,233.62Zm21.73,15.84c-4.37-2.35-8.13-5.81-12.1-8.78a75.52,75.52,0,0,0-11.23-6.57c8.57,1.22,16.17,7.45,23.07,12.2a58.21,58.21,0,0,0,23.26,9.59C149.92,255.05,141.56,253.09,134.77,249.46Z"/><path class="cls-1" d="M161.81,256l-.4-.15c-9.74-3.48-16-12.34-25-17.14-8.44-4.51-18-7.19-27.59-5.42-.44.08-.4.74,0,.86,10.79,2.94,17.54,12.75,27.57,17.1a67,67,0,0,0,21.87,5c.84.06,1.65.1,2.47.12.29.09.59.19.89.26A.35.35,0,0,0,161.81,256Zm-27-6.58c-4.37-2.35-8.13-5.81-12.1-8.78a75.52,75.52,0,0,0-11.23-6.57l-.55-.29-.15,0a.47.47,0,0,1-.17,0l1,0c.2,0,.49,0,.77,0h.12c.19,0,.4,0,.61,0a29.36,29.36,0,0,1,3.51,0,40.37,40.37,0,0,1,9,1.69,57.11,57.11,0,0,1,14.19,6.55c6.37,4,11.14,10.15,17.88,13.38a11.71,11.71,0,0,0,1.24.57h0a1.69,1.69,0,0,0,.36.13,1.44,1.44,0,0,0,.38.15c-.63,0-1.26-.11-1.9-.19C149.92,255.05,141.56,253.09,134.77,249.46Z"/><path class="cls-1" d="M160.67,256s0,0,0,0a.09.09,0,0,1-.08.07s0,0-.07,0a.37.37,0,0,1-.23,0h-.06l-1.29-.27h0c-17-3.93-28.25-20.83-46.13-22l-.16,0h0c-.61,0-1.24,0-1.87,0s-1.06,0-1.59,0h-.21c-.1,0-.1-.13,0-.13a4.35,4.35,0,0,1,.51,0,.07.07,0,0,1,.06,0l1,0h.1c.57,0,1.12,0,1.67,0h.11c17.64.8,29,16.95,45.25,21.59.7.21,1.42.38,2.14.53l0,0c.25.06.52.1.76.15C160.65,255.94,160.67,256,160.67,256Z"/><path class="cls-1" d="M161.71,256.46c-.43,0-.87-.1-1.29-.16h-.11a.47.47,0,0,0-.15,0c-.23,0-.44,0-.65-.09-.59-.08-1.16-.17-1.75-.29a58.27,58.27,0,0,1-23.26-9.59c-6.89-4.75-14.49-11-23.06-12.2-.61-.1-1.24-.15-1.87-.19l-.64,0a.14.14,0,1,1,0-.28c.28,0,.57,0,.85,0h0c.25,0,.5,0,.74,0h.1a8.44,8.44,0,0,1,.89.07l1.07.13h0l.16,0c6.88,1.14,13.37,6,18.79,9.77,8.61,6,17.39,10.7,27.72,12.33a7.75,7.75,0,0,0,.93.14h.06a.37.37,0,0,0,.23,0s.06,0,.07,0a5.58,5.58,0,0,0,.57.08.07.07,0,0,1,.06,0,.47.47,0,0,1,.17,0l.34,0C161.83,256.3,161.83,256.47,161.71,256.46Z"/><path class="cls-1" d="M143.36,256.89h0s0,0-.05,0,0,0,0,0h0c-.23-.06-.44-.14-.68-.19h0a44.27,44.27,0,0,0-10.93-1.45,49.62,49.62,0,0,0-7.77.51,0,0,0,0,0,0,0,6.17,6.17,0,0,0-.62.08c-13.72,2-19.86,6.21-27.8,7.41a30,30,0,0,1-7.45.13c-.4,0-.84-.09-1.28-.15,0,0,0,0,0,0L85.5,263l.61.23c.44.19.89.34,1.33.49.61.23,1.18.44,1.79.65l.07,0c11.39,3.8,22.71,4.24,34.23-.82,5-2.18,11.38-5.41,17.08-6.35a13.48,13.48,0,0,1,1.52-.2l.28,0a0,0,0,0,1,0,0,.09.09,0,0,1,.1,0,.11.11,0,0,1,.11,0,5.24,5.24,0,0,1,.55,0,2.68,2.68,0,0,1,.4,0Zm-35.91,3.27a87.06,87.06,0,0,1,15.81-3.86,56.4,56.4,0,0,1,14.93.19c-6.84,0-13.54,1.52-20.21,3.14a117.47,117.47,0,0,1-20.83,3.46A84.07,84.07,0,0,0,107.45,260.16Zm31.87-3.51h.09l1.24.17s0,0,0,0c-7.85.21-15.2,2.84-22.71,5.19-9.69,3.06-18.62,3.86-28.24,1.86a.08.08,0,0,1-.07,0,.34.34,0,0,1-.19-.05c.42,0,.83,0,1.25,0C107.18,265,122.88,256.11,139.32,256.65Zm-20.09,8a45.16,45.16,0,0,1-23.39.9,49.78,49.78,0,0,0,18.72-2.17c8.64-2.58,17-6.1,26-6.4a.1.1,0,0,0,0,.07C133.05,258.13,126.43,262.35,119.23,264.68Z"/><path class="cls-1" d="M143.69,256.68l0,0h0a33.21,33.21,0,0,0-12.2-2.14c-.27,0-.51,0-.78,0-.63,0-1.25,0-1.9.05a59.16,59.16,0,0,0-7.26.86h0a86.61,86.61,0,0,0-9.61,2.3c-9,2.64-16.65,6.21-26.24,4.77a.51.51,0,0,0-.27,1c9.35,3.6,19.21,5.48,29.15,3.46,9.2-1.84,17.12-7.88,26.32-9.52a15.76,15.76,0,0,1,2.11-.3l.58.08A.28.28,0,0,0,143.69,256.68Zm-2.3.31c-.29,0-.55.05-.82.09-7.52,1.05-14.14,5.27-21.34,7.6a45.16,45.16,0,0,1-23.39.9.07.07,0,0,1-.06,0,58,58,0,0,1-6.1-1.66.08.08,0,0,1-.07,0,.34.34,0,0,1-.19-.05c.42,0,.83,0,1.25,0a35.63,35.63,0,0,0,6.48-.74,84.07,84.07,0,0,0,10.3-2.93,87.06,87.06,0,0,1,15.81-3.86,56.4,56.4,0,0,1,14.93.19h0l1.09.16h.09l1.24.17.26,0c.23,0,.48.06.71.1l-.18,0S141.41,257,141.39,257Z"/><path class="cls-1" d="M143.63,256.89v0a.11.11,0,0,1,0,.08l0,0c-.33,0-.63,0-.93,0a.13.13,0,0,0-.12,0s-.07,0-.09,0a0,0,0,0,0,0,0,7.85,7.85,0,0,0-1,0,0,0,0,0,0-.06,0,5.21,5.21,0,0,0-.79,0c-9.07.3-17.39,3.82-26,6.4a49.7,49.7,0,0,1-18.71,2.17.07.07,0,0,1-.06,0,36.44,36.44,0,0,1-6.48-1.16l-.08,0a37.62,37.62,0,0,1-3.76-1.25s-.06,0-.07-.06a.12.12,0,0,1,0-.08.21.21,0,0,1,0-.07s0,0,.08,0h0l1.06.28s0,0,0,0a16.63,16.63,0,0,0,1.65.42h0c.44.11.86.21,1.29.29h.08c9.61,2,18.55,1.2,28.24-1.86,7.5-2.35,14.86-5,22.7-5.19h.29c.47,0,.93,0,1.4,0a8.78,8.78,0,0,1,1,0Z"/><path class="cls-1" d="M143.63,256.89v0a.11.11,0,0,1,0,.08l0,0a2.58,2.58,0,0,0-.38,0,3.61,3.61,0,0,0-.65-.08,1,1,0,0,0-.25,0l-1.57-.13c-.44,0-.88-.06-1.33-.07h-.1c-16.43-.54-32.13,8.39-48.64,7.18-.57,0-1.16-.08-1.73-.15-.21,0-.42,0-.63-.08h0q-1.08-.14-2.16-.36c-.21,0-.44-.08-.65-.11,0,0-.06,0-.07-.06a.12.12,0,0,1,0-.08.21.21,0,0,1,0-.07s0,0,.08,0l0,0h0c.49.06,1,.11,1.5.15a66,66,0,0,0,8.3.17c.61,0,1.22,0,1.81-.11A117.51,117.51,0,0,0,118,259.63c6.67-1.62,13.38-3.17,20.22-3.14h0c1,0,2,.06,3,.14h0c.65.05,1.29.13,1.94.21h0s0,0,0,0a1.86,1.86,0,0,1,.33,0Z"/><path class="cls-1" d="M200.08,241.86a.15.15,0,0,0-.09,0c-.25.06-.52.13-.78.21s-.55.15-.84.23h0a93.21,93.21,0,0,0-16.28,6.9c-2.93,1.5-5.89,3.11-8.87,4.78a.07.07,0,0,0-.06,0l0,0h0l-.06,0C162.35,260,151.57,266.24,142,269h0l-.1,0s0,0-.08,0l-.47.11s0,0,0,0c-.38.11-.78.21-1.16.3a.06.06,0,0,1-.05,0h.07l.63,0c.32,0,.63,0,.95,0H142a94.93,94.93,0,0,0,32.74-5.32c10.09-3.59,20.21-11.42,25-21.17,0,0,0,0,0,0a.62.62,0,0,0,.12-.19.74.74,0,0,1,.07-.21,2.09,2.09,0,0,0,.19-.4s0,0,0,0a1.87,1.87,0,0,0,.17-.35ZM198,243.59h0s.06,0,.08,0a13.35,13.35,0,0,0,1.18-.63c-5.25,7.38-14.18,12.28-22.1,16.08A107.9,107.9,0,0,1,146,268.54C164.82,264.49,182.09,254.23,198,243.59Zm-29,13.34c9.13-5.05,18.19-10,28-13.66-6.64,3.72-12.87,8.36-19.52,12-9.75,5.37-20,10.07-30.86,12.69C154.44,265.14,161.81,260.94,169,256.93Zm-21.54,12a102,102,0,0,0,29.94-9.44c7.45-3.65,15.83-8.29,21.19-15C188.11,261.78,167.13,268.24,147.49,268.92Z"/><path class="cls-1" d="M200.2,241.54c-.42.07-.84.17-1.26.26-7.37,1.58-14.34,5.15-21,8.88l-.1.06c-2.28,1.25-4.52,2.54-6.74,3.78l-1.31.74-.06,0a0,0,0,0,0,0,0c-9.5,5.32-19.12,11-29.76,13.62a.55.55,0,0,0,.16,1.08c21.77.78,50.37-5.45,60-27.53v0a.34.34,0,0,0,.1-.23s0,0,0,0a.14.14,0,0,0,.06-.11s0,0,0,0h0A.28.28,0,0,0,200.2,241.54Zm-1.56,2.89s0,0,0,0c-10.51,17.31-31.49,23.77-51.13,24.45h0q-1.83.06-3.63.06a4.91,4.91,0,0,1,.53-.19.07.07,0,0,0,0,0c.74-.23,1.48-.5,2.22-.78,7.83-2.85,15.2-7.05,22.42-11.06,9.13-5.05,18.19-10,28-13.66.19-.08.39-.15.58-.21.71-.27,1.43-.53,2.13-.76a.38.38,0,0,1,.19-.06c0,.06,0,.12-.09.15a2.7,2.7,0,0,1-.21.38C199.3,243.34,199,243.9,198.64,244.43Z"/><path class="cls-1" d="M200.44,241.9l-.06.1h0l0,.07a.41.41,0,0,1-.1.13,0,0,0,0,1,0,0,1.61,1.61,0,0,1-.19.31,1.28,1.28,0,0,1-.21.28.5.5,0,0,1-.11.19s0,0,0,0c-.32.48-.68.93-1.05,1.39,0,0,0,0,0,0-5.36,6.72-13.74,11.36-21.19,15a102,102,0,0,1-30,9.44h0c-1.82.27-3.66.48-5.51.61h-.19c-.55.06-1.1.07-1.65.11a.15.15,0,0,1-.15-.21s0-.05,0-.07.07-.08.13-.1l.57-.05.1,0a2.57,2.57,0,0,0,.55-.06s0,0,0,0c1-.1,2-.21,3-.34a.07.07,0,0,0,0,0c.53-.06,1-.13,1.55-.21a.07.07,0,0,0,.06,0A107.93,107.93,0,0,0,177.16,259c7.93-3.8,16.86-8.7,22.1-16.07a2.4,2.4,0,0,0,.25-.37c.07-.09.13-.19.19-.28a3.07,3.07,0,0,0,.28-.42l.12-.17A.19.19,0,0,1,200.44,241.9Z"/><path class="cls-1" d="M200.38,242h0l-.05.05a.42.42,0,0,0-.12.08l-.11.07-.29.19c-.09.06-.19.14-.28.19-.5.35-1,.67-1.5,1h0c-15.91,10.64-33.18,20.9-52,25a.07.07,0,0,1-.06,0c-.7.15-1.42.28-2.12.42h0l-.08,0c-1,.19-1.94.34-2.91.49l-.62.1h0a.17.17,0,0,1-.19-.16s0-.05,0-.07.06,0,.09,0l.1,0,.51-.09.1,0c.36,0,.72-.1,1.06-.17,0,0,.06,0,.08,0a.58.58,0,0,0,.19,0c1.52-.27,3-.59,4.52-1,10.83-2.62,21.11-7.32,30.86-12.69,6.65-3.67,12.88-8.31,19.51-12,.27-.13.53-.29.78-.42.48-.27,1-.51,1.44-.76.31-.17.63-.34,1-.49A.23.23,0,0,1,200.38,242Z"/><path class="cls-1" d="M98.6,164.41a21.9,21.9,0,0,1-8.09,14.86,24.56,24.56,0,0,1-7.58,4.3,26.8,26.8,0,0,1-9.11,1.57,32.86,32.86,0,0,1-12.43-2.38,29.77,29.77,0,0,1-10.22-6.82q-10.11-10.32-10.11-27.71t10-27.81a28.62,28.62,0,0,1,9.86-6.72,30.31,30.31,0,0,1,11.78-2.38q8.81,0,14.41,2.93a20,20,0,0,1,8.09,7,14.57,14.57,0,0,1,2.48,7.48A10.87,10.87,0,0,1,95.62,135a7.09,7.09,0,0,1-6.22,3,6.87,6.87,0,0,1-4.5-1.62,4.58,4.58,0,0,1-2-3.54,4.81,4.81,0,0,0,2.93-2A5.49,5.49,0,0,0,87,127.7a18.77,18.77,0,0,0-2.73-9.81q-2.73-4.55-10.42-4.55-8.19,0-13.14,7.18-6.07,8.91-6.07,27.71,0,19.11,6.17,27.6A16.67,16.67,0,0,0,67,181.35a18.08,18.08,0,0,0,8.19,1.77,17.52,17.52,0,0,0,6.67-1.42,24.9,24.9,0,0,0,6.47-3.94,21,21,0,0,0,4.91-5.92,20.34,20.34,0,0,0,2.48-7.43Z"/><path class="cls-1" d="M148.55,182.71v.91h-18v-4.75a18.07,18.07,0,0,1-7,5,14.93,14.93,0,0,1-6.47,1.22q-8.49,0-13.29-3.34A10.67,10.67,0,0,1,99,172.5a9.68,9.68,0,0,1,2-5.72,18.71,18.71,0,0,1,5.87-5,33.64,33.64,0,0,1,10.42-3.69,67,67,0,0,1,13.24-1.27v-6.06c0-4.52-.59-7.75-1.77-9.71s-3.45-2.93-6.82-2.93a9.27,9.27,0,0,0-5.82,1.67,5.78,5.78,0,0,0-2.17,4.9,5.44,5.44,0,0,0,1.11,3.18,4.75,4.75,0,0,0,2.93,2,4.58,4.58,0,0,1-2,3.54,6.87,6.87,0,0,1-4.5,1.61q-4.25,0-6.27-2.52a9,9,0,0,1-2-5.77,7.76,7.76,0,0,1,2.73-5.86,18.26,18.26,0,0,1,7.08-3.9,29.52,29.52,0,0,1,8.9-1.36q8.9,0,14.1,4.14a13.4,13.4,0,0,1,5.21,11v26.09a5.29,5.29,0,0,0,1.16,3.38,5.13,5.13,0,0,0,3.09,1.87Zm-18-22.75q-8.7,0-13.24,3.39t-4.55,10a9.22,9.22,0,0,0,2.12,6.22A6.54,6.54,0,0,0,120,182a7.58,7.58,0,0,0,4-1.06,20.35,20.35,0,0,0,3.79-3.08,12.18,12.18,0,0,0,2.73-4.15Z"/><path class="cls-1" d="M198.91,182.71v.91h-18v-4.75a18.15,18.15,0,0,1-7,5,15,15,0,0,1-6.47,1.22q-8.49,0-13.3-3.34a10.68,10.68,0,0,1-4.8-9.3,9.62,9.62,0,0,1,2-5.72,18.59,18.59,0,0,1,5.87-5,33.66,33.66,0,0,1,10.41-3.69,67.17,67.17,0,0,1,13.25-1.27v-6.06c0-4.52-.59-7.75-1.77-9.71s-3.46-2.93-6.83-2.93a9.26,9.26,0,0,0-5.81,1.67,5.79,5.79,0,0,0-2.18,4.9,5.38,5.38,0,0,0,1.12,3.18,4.75,4.75,0,0,0,2.93,2,4.61,4.61,0,0,1-2,3.54,6.9,6.9,0,0,1-4.5,1.61q-4.25,0-6.27-2.52a9,9,0,0,1-2-5.77,7.76,7.76,0,0,1,2.73-5.86,18.22,18.22,0,0,1,7.07-3.9,29.57,29.57,0,0,1,8.9-1.36q8.9,0,14.11,4.14a13.4,13.4,0,0,1,5.21,11v26.09a5.23,5.23,0,0,0,1.16,3.38,5.08,5.08,0,0,0,3.08,1.87Zm-18-22.75q-8.7,0-13.25,3.39t-4.55,10a9.27,9.27,0,0,0,2.12,6.22,6.57,6.57,0,0,0,5.16,2.47,7.62,7.62,0,0,0,4-1.06,20.68,20.68,0,0,0,3.79-3.08,12.18,12.18,0,0,0,2.73-4.15Z"/><path class="cls-1" d="M200.52,182.1a5.13,5.13,0,0,0,3.09-1.87,5.29,5.29,0,0,0,1.16-3.38V119.61a5.34,5.34,0,0,0-1.16-3.39,5.23,5.23,0,0,0-3.09-1.87l-3-.6v-.91h18v64a5.29,5.29,0,0,0,1.16,3.38,5.13,5.13,0,0,0,3.09,1.87l3,.61v.91H197.49v-.91Z"/><path class="cls-1" d="M226,182.1a5.11,5.11,0,0,0,3.09-1.87,5.29,5.29,0,0,0,1.16-3.38v-33a5.34,5.34,0,0,0-1.16-3.39,5.2,5.2,0,0,0-3.09-1.87l-3-.6v-.91h18v39.74a5.29,5.29,0,0,0,1.16,3.38,5.13,5.13,0,0,0,3.09,1.87l3,.61v.91H223v-.91Zm13.2-52.73a5.62,5.62,0,1,1,1.57-3.89A5.48,5.48,0,0,1,239.2,129.37Z"/><path class="cls-1" d="M76.17,185c-4.72.66-11.67.21-15.87-1.64A29.37,29.37,0,0,1,49.46,175a39.41,39.41,0,0,1-6.31-12,60.69,60.69,0,0,1-2.81-13.12,68.07,68.07,0,0,1-.17-13.39,64.89,64.89,0,0,1,2.61-13.15,53.74,53.74,0,0,1,13.9-22.81,49.06,49.06,0,0,1,23.8-12.1A75.93,75.93,0,0,1,107.07,88a129.35,129.35,0,0,1,25.56,6.82c8.26,3,16.28,6.6,24.24,10.11a93.46,93.46,0,0,0,12,4.51,36.55,36.55,0,0,0,12.42,1.47,24,24,0,0,0,11.58-3.72,16.4,16.4,0,0,0,4.31-4.16,20.42,20.42,0,0,0,1.61-2.56A23.81,23.81,0,0,0,200,97.6c2.61-7.7,1.08-17.12-4.61-22.94a16,16,0,0,0-10.7-4.87,14.63,14.63,0,0,0-10.88,4.42c-2.91,2.85-4.94,6.79-3.9,10.69s3.55,7.52,6.77,10.46a16.69,16.69,0,0,1-8.76-10,10.36,10.36,0,0,1,.35-7.08,17.39,17.39,0,0,1,3.86-5.8,18.13,18.13,0,0,1,5.72-4,16.65,16.65,0,0,1,6.9-1.37,18.36,18.36,0,0,1,12.63,5.51,22.13,22.13,0,0,1,2.28,2.65,25.16,25.16,0,0,1,4,9.55,27,27,0,0,1-.83,13.67,25.75,25.75,0,0,1-1.32,3.23,23.13,23.13,0,0,1-1.86,3,19.37,19.37,0,0,1-5.05,4.88,26.93,26.93,0,0,1-13,4.24,39.17,39.17,0,0,1-13.45-1.56,94.57,94.57,0,0,1-12.46-4.63c-8-3.51-15.94-7-24.08-10A126.08,126.08,0,0,0,106.62,91a72.66,72.66,0,0,0-25.48.43A45.91,45.91,0,0,0,58.87,102.8a50.51,50.51,0,0,0-13,21.45,61.46,61.46,0,0,0-2.28,25.23,58,58,0,0,0,2.66,12.42,36.41,36.41,0,0,0,5.79,11c5,6.36,7,10.42,14.93,9.43"/><path class="cls-1" d="M58.68,99.59a20.58,20.58,0,0,1-1.41-8.14A9.66,9.66,0,0,1,61,83.91a69.69,69.69,0,0,1,7.17-4.14,12.85,12.85,0,0,0,3.16-2.19A7.45,7.45,0,0,0,73,74.38v0a.84.84,0,0,1,1.64.12,28.75,28.75,0,0,1,0,8,12.66,12.66,0,0,1-3.3,7.32c-1.91,1.95-4.27,3.18-6.4,4.56a10.47,10.47,0,0,0-4.93,5.59c.42-2.61,2.4-4.72,4.46-6.25s4.32-2.89,5.93-4.77a11.93,11.93,0,0,0,2.67-6.67A28.31,28.31,0,0,0,73,74.75l1.65.09a9,9,0,0,1-2.18,3.91,14.81,14.81,0,0,1-3.58,2.45c-2.46,1.25-5,2.4-7.17,3.8a8.57,8.57,0,0,0-3.61,6.53A22.24,22.24,0,0,0,58.68,99.59Z"/><path class="cls-1" d="M59.54,98.26a11.6,11.6,0,0,1,1.37-6.77,7.52,7.52,0,0,1,2.57-2.63c.94-.59,1.86-1.19,2.73-1.86a22.39,22.39,0,0,0,4.71-4.45,16.76,16.76,0,0,0,2.76-6A12.08,12.08,0,0,1,72,83.28a17.76,17.76,0,0,1-4.79,5.09,33.38,33.38,0,0,1-2.91,1.87,6.92,6.92,0,0,0-2.29,2A16.27,16.27,0,0,0,59.54,98.26Z"/><path class="cls-1" d="M88.31,89.46a20.68,20.68,0,0,1,1.08-8.19,9.68,9.68,0,0,1,5.77-6.09,67.2,67.2,0,0,1,8.08-1.81,13.36,13.36,0,0,0,3.67-1.15,7.62,7.62,0,0,0,2.62-2.53v0a.84.84,0,0,1,1.53.6,28.5,28.5,0,0,1-2.33,7.62,12.65,12.65,0,0,1-5.34,6c-2.4,1.3-5,1.76-7.47,2.44a10.56,10.56,0,0,0-6.37,3.87c1.18-2.37,3.7-3.79,6.13-4.64s5-1.46,7.07-2.77a12,12,0,0,0,4.55-5.57A29,29,0,0,0,109.4,70l1.54.58a8.91,8.91,0,0,1-3.25,3.08A14.51,14.51,0,0,1,103.55,75c-2.72.46-5.44.81-8,1.48a8.56,8.56,0,0,0-5.39,5.16A22.25,22.25,0,0,0,88.31,89.46Z"/><path class="cls-1" d="M89.53,88.45a11.55,11.55,0,0,1,3.33-6,7.54,7.54,0,0,1,3.24-1.75c1.07-.28,2.13-.58,3.16-1a22.62,22.62,0,0,0,5.82-2.84A16.92,16.92,0,0,0,109.49,72a12,12,0,0,1-3.59,5.88,17.84,17.84,0,0,1-6.09,3.42,32.38,32.38,0,0,1-3.34.92,7,7,0,0,0-2.77,1.21A16.23,16.23,0,0,0,89.53,88.45Z"/><path class="cls-1" d="M120.13,92.26a19.16,19.16,0,0,1,2.51-7.32,9.1,9.1,0,0,1,6.45-4.54,65.53,65.53,0,0,1,7.77-.16,12.07,12.07,0,0,0,3.56-.36,6.92,6.92,0,0,0,2.85-1.82l0,0a.84.84,0,0,1,1.37.89,26.35,26.35,0,0,1-3.58,6.57A11.89,11.89,0,0,1,135,90a32.6,32.6,0,0,1-7.32.82,9.85,9.85,0,0,0-6.58,2.33c1.52-2,4.1-2.8,6.49-3.13s4.85-.43,7-1.24a11,11,0,0,0,5.18-4.25,27,27,0,0,0,3.26-6.17l1.39.87a8.26,8.26,0,0,1-3.58,2.23,13.85,13.85,0,0,1-4,.39c-2.59-.1-5.15-.28-7.6-.15a8,8,0,0,0-5.9,3.69A20.91,20.91,0,0,0,120.13,92.26Z"/><path class="cls-1" d="M121.44,91.57a10.68,10.68,0,0,1,4.17-5,7.08,7.08,0,0,1,3.32-1c1-.06,2.06-.14,3.07-.28a21.49,21.49,0,0,0,5.86-1.5,16.4,16.4,0,0,0,5-3.59A11.16,11.16,0,0,1,138.47,85a16.68,16.68,0,0,1-6.25,2,32,32,0,0,1-3.24.21,6.37,6.37,0,0,0-2.75.57A15.47,15.47,0,0,0,121.44,91.57Z"/><path class="cls-1" d="M145.6,101a14.88,14.88,0,0,1,1.87-5.73,7.15,7.15,0,0,1,5.06-3.62,47.39,47.39,0,0,1,6-.15,9.37,9.37,0,0,0,2.71-.28,5.23,5.23,0,0,0,2.13-1.37l0,0a.83.83,0,0,1,1.18,0,.84.84,0,0,1,.19.9A20.32,20.32,0,0,1,162,95.86a9.22,9.22,0,0,1-4.79,3.53,25.3,25.3,0,0,1-5.72.6,7.69,7.69,0,0,0-5.11,1.71,7.57,7.57,0,0,1,5-2.52,25.25,25.25,0,0,0,5.39-1,8.52,8.52,0,0,0,3.93-3.27,20.83,20.83,0,0,0,2.49-4.74l1.39.87a6.57,6.57,0,0,1-2.85,1.77,10.89,10.89,0,0,1-3.21.31c-2-.08-4-.23-5.87-.15a6.07,6.07,0,0,0-4.51,2.77A16.52,16.52,0,0,0,145.6,101Z"/><path class="cls-1" d="M146.62,100.46a8,8,0,0,1,3.16-4,5.57,5.57,0,0,1,2.64-.82c.79-.05,1.58-.12,2.36-.23a17.45,17.45,0,0,0,4.5-1.11,13.46,13.46,0,0,0,3.94-2.65,8.26,8.26,0,0,1-3.33,3.82A12.56,12.56,0,0,1,155,97.1a23.87,23.87,0,0,1-2.53.16,4.77,4.77,0,0,0-2.07.39A12.87,12.87,0,0,0,146.62,100.46Z"/><path class="cls-1" d="M172.85,111a12.65,12.65,0,0,1,.12-5.23,6.12,6.12,0,0,1,3.37-4.29,41.59,41.59,0,0,1,5-1.59,7.92,7.92,0,0,0,2.15-.87,4.49,4.49,0,0,0,1.41-1.6l0,0a.84.84,0,0,1,1.56.49,17.58,17.58,0,0,1-1.12,5,8.19,8.19,0,0,1-3.18,4.13,20.15,20.15,0,0,1-4.64,1.83,6.61,6.61,0,0,0-3.86,2.59,6.5,6.5,0,0,1,3.55-3.34,24.43,24.43,0,0,0,4.21-2.16,7.23,7.23,0,0,0,2.44-3.61,18.35,18.35,0,0,0,.92-4.51l1.58.45a5.82,5.82,0,0,1-2,2.2,9.32,9.32,0,0,1-2.62,1c-1.69.41-3.38.76-4.91,1.27a5.3,5.3,0,0,0-3.07,3.31A14.2,14.2,0,0,0,172.85,111Z"/><path class="cls-1" d="M173.56,110.31a6.79,6.79,0,0,1,1.62-4.14,4.83,4.83,0,0,1,2-1.36,19.79,19.79,0,0,0,1.9-.76,15.43,15.43,0,0,0,3.46-2,12.48,12.48,0,0,0,2.7-3.08,7,7,0,0,1-1.79,4,10.72,10.72,0,0,1-3.69,2.56,20.65,20.65,0,0,1-2.08.74,4.19,4.19,0,0,0-1.6.78A11.9,11.9,0,0,0,173.56,110.31Z"/><path class="cls-1" d="M74.93,91.05A19.8,19.8,0,0,0,78,97.48a7.52,7.52,0,0,0,5.55,3.44c2.31.11,4.72-.08,7.16-.18a12.81,12.81,0,0,1,3.84.36,7.92,7.92,0,0,1,3.4,2.1l-1.39.87a25.55,25.55,0,0,0-3.08-5.79,10.43,10.43,0,0,0-4.88-4A30.76,30.76,0,0,0,82,93.15c-2.26-.31-4.7-1.1-6.13-3a9.24,9.24,0,0,0,6.21,2.15,30.68,30.68,0,0,1,6.91.74,11.21,11.21,0,0,1,5.75,4.24,25.37,25.37,0,0,1,3.4,6.19.85.85,0,0,1-.48,1.09.83.83,0,0,1-.89-.19l0,0a6.36,6.36,0,0,0-2.67-1.69,11.36,11.36,0,0,0-3.35-.33,60.07,60.07,0,0,1-7.32-.13A8.6,8.6,0,0,1,77.3,98,18.11,18.11,0,0,1,74.93,91.05Z"/><path class="cls-1" d="M76.17,91.7a14.93,14.93,0,0,0,4.54,3.53,6,6,0,0,0,2.58.51c1,0,2,.07,3.06.19a15.59,15.59,0,0,1,5.9,1.89,10.41,10.41,0,0,1,4.13,4.5A15.56,15.56,0,0,0,91.65,99a20.6,20.6,0,0,0-5.52-1.38c-.95-.13-1.91-.2-2.89-.26a6.68,6.68,0,0,1-3.14-.94A10,10,0,0,1,76.17,91.7Z"/><path class="cls-1" d="M106.82,90.18a19.91,19.91,0,0,0,1.4,7,7.49,7.49,0,0,0,4.55,4.69c2.2.68,4.59,1.09,7,1.58a13.07,13.07,0,0,1,3.63,1.29,7.9,7.9,0,0,1,2.79,2.87l-1.57.51a25.14,25.14,0,0,0-1.57-6.38,10.44,10.44,0,0,0-3.75-5,31.74,31.74,0,0,0-6.11-2.73c-2.11-.85-4.28-2.22-5.22-4.36a9.29,9.29,0,0,0,5.49,3.6A30.3,30.3,0,0,1,120,95.59a11.2,11.2,0,0,1,4.54,5.52,25.11,25.11,0,0,1,1.78,6.83.84.84,0,0,1-.72.94.87.87,0,0,1-.83-.4v0a6.54,6.54,0,0,0-2.19-2.3,11.8,11.8,0,0,0-3.16-1.14,59.79,59.79,0,0,1-7.06-1.91,8.6,8.6,0,0,1-4.89-5.65A18.31,18.31,0,0,1,106.82,90.18Z"/><path class="cls-1" d="M107.86,91.11a14.93,14.93,0,0,0,3.54,4.53,6,6,0,0,0,2.38,1.13c1,.26,2,.57,2.92.93A15.63,15.63,0,0,1,122,101a10.37,10.37,0,0,1,2.9,5.38,15.35,15.35,0,0,0-3.77-4.39,20.48,20.48,0,0,0-5-2.69c-.89-.36-1.81-.67-2.74-1a6.63,6.63,0,0,1-2.82-1.69A10,10,0,0,1,107.86,91.11Z"/><path class="cls-1" d="M137.34,99.17a17.26,17.26,0,0,0-.35,6.1,6.42,6.42,0,0,0,2.71,4.85c1.68,1,3.57,1.91,5.44,2.86a10.91,10.91,0,0,1,2.76,1.9,6.9,6.9,0,0,1,1.7,3.06L148,118a21.94,21.94,0,0,0,.14-5.61,8.89,8.89,0,0,0-1.94-5,26.48,26.48,0,0,0-4.43-3.66c-1.55-1.2-3-2.84-3.32-4.84a8,8,0,0,0,3.79,4.18,26.29,26.29,0,0,1,4.9,3.45,9.71,9.71,0,0,1,2.57,5.65,21.57,21.57,0,0,1,0,6.11.84.84,0,0,1-.94.72.85.85,0,0,1-.7-.6v0a5.57,5.57,0,0,0-1.26-2.35,9.61,9.61,0,0,0-2.34-1.63,50.11,50.11,0,0,1-5.43-3.21,7.43,7.43,0,0,1-2.79-5.85A15.33,15.33,0,0,1,137.34,99.17Z"/><path class="cls-1" d="M138,100.17a13.26,13.26,0,0,0,2,4.51,5.18,5.18,0,0,0,1.69,1.43,26.32,26.32,0,0,1,2.23,1.43,13.24,13.24,0,0,1,3.64,3.95,8.71,8.71,0,0,1,1.12,5.17,13.91,13.91,0,0,0-2.22-4.44,17.8,17.8,0,0,0-3.55-3.32c-.65-.5-1.35-1-2-1.41a5.89,5.89,0,0,1-2-2.08A8.5,8.5,0,0,1,138,100.17Z"/><path class="cls-1" d="M162.67,109.73a15.53,15.53,0,0,0-.27,5.42,5.62,5.62,0,0,0,2.41,4.25c1.48.9,3.16,1.68,4.83,2.51a10,10,0,0,1,2.47,1.71,6.18,6.18,0,0,1,1.53,2.75l-1.64.09a19.61,19.61,0,0,0,.13-5,7.94,7.94,0,0,0-1.69-4.4,23.43,23.43,0,0,0-3.9-3.25,7,7,0,0,1-2.92-4.34,7.13,7.13,0,0,0,3.39,3.68,22.91,22.91,0,0,1,4.38,3,8.69,8.69,0,0,1,2.31,5.05,19.14,19.14,0,0,1,0,5.45.83.83,0,0,1-1.63.12v0a4.84,4.84,0,0,0-1.1-2,8.68,8.68,0,0,0-2-1.44,44.93,44.93,0,0,1-4.83-2.86,6.7,6.7,0,0,1-2.48-5.26A13.57,13.57,0,0,1,162.67,109.73Z"/><path class="cls-1" d="M163.25,110.62a12.16,12.16,0,0,0,1.84,4,4.32,4.32,0,0,0,1.49,1.23,22.36,22.36,0,0,1,2,1.28,11.66,11.66,0,0,1,3.23,3.54,7.6,7.6,0,0,1,.93,4.63,12.66,12.66,0,0,0-2-3.9,16.5,16.5,0,0,0-3.15-2.91c-.57-.44-1.18-.85-1.8-1.25a5.28,5.28,0,0,1-1.78-1.89A7.32,7.32,0,0,1,163.25,110.62Z"/></svg>