<?xml version="1.0" encoding="utf-8"?>
<!-- Generator: Adobe Illustrator 25.3.1, SVG Export Plug-In . SVG Version: 6.00 Build 0)  -->
<svg version="1.1" id="Layer_1" xmlns="http://www.w3.org/2000/svg" xmlns:xlink="http://www.w3.org/1999/xlink" x="0px" y="0px"
	 viewBox="0 0 1250 400" style="enable-background:new 0 0 1250 400;" xml:space="preserve">
<style type="text/css">
	.st0{fill:#2D3D26;}
	.st1{opacity:0.5;fill:none;stroke:#D3CCC5;stroke-miterlimit:10;}
	.st2{opacity:0.5;fill:#D3CCC5;}
	.st3{font-family:'MyriadPro-Regular';}
	.st4{font-size:27.1246px;}
</style>
<g>
	<rect x="-0.5" y="-1.5" class="st0" width="1252" height="403"/>
	<path d="M1251-1v402H0V-1H1251 M1252-2H-1v404h1253V-2L1252-2z"/>
</g>
<line class="st1" x1="0" y1="-1.5" x2="401.2" y2="399.8"/>
<line class="st1" x1="401.2" y1="-1.5" x2="0" y2="399.8"/>
<g>
	<rect x="96" y="146" class="st0" width="209" height="104"/>
</g>
<g>
	<path class="st2" d="M158.8,163.4c-0.2-2.1,0.2-4.2,0.8-6.2c0.7-2.1,2.3-3.8,4.4-4.6c2-0.6,4.1-1.1,6.1-1.4c1-0.2,1.9-0.5,2.8-0.9
		c0.8-0.5,1.5-1.1,2-1.9l0,0c0.2-0.3,0.6-0.4,0.9-0.2c0.2,0.2,0.3,0.4,0.3,0.6c-0.3,2-0.9,3.9-1.7,5.8c-0.8,1.9-2.3,3.5-4,4.6
		c-1.8,1-3.8,1.4-5.7,1.8c-1.9,0.4-3.6,1.4-4.9,3c0.9-1.8,2.8-2.9,4.6-3.5c1.8-0.6,3.8-1.1,5.4-2.1c1.6-1,2.7-2.5,3.5-4.2
		c0.8-1.7,1.3-3.6,1.6-5.5l1.1,0.5c-0.6,1-1.4,1.7-2.4,2.4c-1,0.5-2,0.8-3.1,1c-2,0.4-4.1,0.6-6.1,1.1c-1.9,0.6-3.4,2-4.1,3.9
		C159.4,159.3,158.9,161.4,158.8,163.4z"/>
	<path class="st2" d="M158.7,162.6c0.4-1.7,1.2-3.3,2.5-4.6c0.7-0.6,1.5-1.1,2.4-1.4c0.8-0.2,1.6-0.5,2.4-0.8c1.6-0.5,3-1.2,4.4-2.1
		c1.4-1,2.5-2.3,3.3-3.7c-0.5,1.7-1.4,3.3-2.7,4.5c-1.4,1.1-3,2-4.6,2.6c-0.8,0.3-1.7,0.5-2.5,0.7c-0.8,0.2-1.4,0.5-2.1,0.9
		C160.6,159.9,159.5,161.2,158.7,162.6z"/>
	<g>
		<path class="st2" d="M165.6,220c-0.5,4.4-2.7,8.5-6.1,11.3c-1.7,1.4-3.6,2.5-5.8,3.3c-2.2,0.8-4.6,1.2-6.9,1.2
			c-3.3,0-6.4-0.6-9.4-1.8c-2.9-1.1-5.5-3-7.7-5.2c-5.1-5.2-7.7-12.2-7.7-21s2.5-15.9,7.6-21.1c2.1-2.2,4.6-3.9,7.5-5.1
			c2.8-1.2,5.8-1.8,9-1.8c4.5,0,8.1,0.8,10.9,2.2c2.5,1.2,4.6,3,6.1,5.3c1.1,1.7,1.8,3.6,1.9,5.7c0,1.7-0.5,3.3-1.6,4.8
			c-1.1,1.5-2.9,2.4-4.7,2.3c-1.2,0-2.4-0.5-3.4-1.2c-0.9-0.6-1.4-1.6-1.5-2.7c0.9-0.2,1.7-0.8,2.2-1.5c0.5-0.7,0.8-1.5,0.9-2.4
			c0-2.7-0.7-5.2-2-7.4c-1.4-2.3-4-3.5-7.9-3.5c-4.2,0-7.4,1.8-9.9,5.5c-3,4.5-4.6,11.5-4.6,21c0,9.6,1.6,16.6,4.7,20.9
			c1.2,1.7,2.8,3.2,4.7,4.2c2,0.9,4.1,1.4,6.2,1.4c1.7,0,3.5-0.4,5.1-1.1c1.7-0.8,3.4-1.7,4.9-3c1.5-1.3,2.8-2.8,3.7-4.5
			c1-1.7,1.6-3.6,1.9-5.6L165.6,220z"/>
		<path class="st2" d="M203.5,233.9v0.7h-13.7v-3.6c-1.4,1.7-3.3,3-5.3,3.8c-1.5,0.7-3.2,1-4.9,0.9c-4.3,0-7.7-0.8-10.1-2.5
			c-2.4-1.5-3.7-4.2-3.6-7.1c0-1.6,0.5-3.1,1.5-4.3c1.2-1.6,2.7-2.9,4.5-3.8c2.4-1.4,5.2-2.3,7.9-2.8c3.3-0.7,6.7-1,10-1v-4.6
			c0-3.4-0.5-5.9-1.4-7.4c-0.9-1.4-2.6-2.2-5.2-2.2c-1.6-0.1-3.1,0.4-4.4,1.3c-1.1,0.9-1.7,2.3-1.7,3.7c0,0.9,0.3,1.7,0.8,2.4
			c0.5,0.8,1.3,1.3,2.2,1.5c-0.1,1.1-0.6,2-1.5,2.7c-1,0.8-2.2,1.2-3.4,1.2c-2.1,0-3.7-0.6-4.8-1.9c-1-1.2-1.5-2.8-1.5-4.4
			c0-1.7,0.8-3.3,2-4.5c1.5-1.4,3.4-2.4,5.4-3c2.2-0.7,4.5-1.1,6.8-1.1c4.5,0,8,1.1,10.7,3.1c2.6,2,4,5.1,3.9,8.3v19.8
			c0,0.9,0.3,1.8,0.9,2.6c0.6,0.8,1.4,1.2,2.4,1.4L203.5,233.9z M189.9,216.7c-4.4,0-7.7,0.8-10,2.6s-3.4,4.2-3.5,7.6
			c-0.1,1.7,0.5,3.4,1.6,4.7c0.9,1.1,2.4,1.8,3.9,1.8c1.1,0,2.1-0.2,3-0.8c1.1-0.7,2-1.4,2.9-2.4c0.9-0.9,1.6-2,2-3.1L189.9,216.7z"
			/>
		<path class="st2" d="M241.7,233.9v0.7h-13.7v-3.6c-1.4,1.7-3.3,3-5.3,3.8c-1.5,0.7-3.2,1-4.9,0.9c-4.3,0-7.7-0.8-10.1-2.5
			c-2.4-1.5-3.7-4.2-3.6-7.1c0-1.6,0.5-3.1,1.5-4.3c1.2-1.6,2.7-2.9,4.5-3.8c2.4-1.4,5.2-2.3,7.9-2.8c3.3-0.7,6.7-1,10-1v-4.6
			c0-3.4-0.5-5.9-1.4-7.4s-2.7-2.2-5.2-2.2c-1.6-0.1-3.1,0.4-4.4,1.3c-1.1,0.9-1.7,2.3-1.7,3.7c0,0.9,0.3,1.7,0.8,2.4
			c0.5,0.8,1.3,1.3,2.2,1.5c-0.1,1.1-0.6,2-1.5,2.7c-1,0.8-2.2,1.2-3.4,1.2c-2.1,0-3.7-0.6-4.8-1.9c-1-1.2-1.5-2.8-1.5-4.4
			c0-1.7,0.8-3.3,2-4.5c1.5-1.4,3.4-2.4,5.4-3c2.2-0.7,4.5-1.1,6.8-1.1c4.5,0,8,1.1,10.7,3.1c2.6,2,4,5.1,3.9,8.3v19.8
			c0,0.9,0.3,1.8,0.9,2.6c0.6,0.8,1.4,1.2,2.4,1.4L241.7,233.9z M228.1,216.7c-4.4,0-7.7,0.8-10,2.6s-3.5,4.2-3.5,7.6
			c-0.1,1.7,0.5,3.4,1.6,4.7c1,1.2,2.4,1.9,3.9,1.9c1.1,0,2.1-0.2,3-0.8c1.1-0.7,2-1.4,2.9-2.4c0.9-0.9,1.6-2,2-3.1V216.7z"/>
		<path class="st2" d="M242.9,233.4c0.9-0.2,1.7-0.7,2.4-1.4c0.6-0.8,0.9-1.7,0.9-2.6V186c0-0.9-0.3-1.8-0.9-2.6
			c-0.6-0.8-1.4-1.2-2.4-1.4l-2.3-0.5v-0.7h13.7v48.6c0,0.9,0.3,1.8,0.9,2.6c0.6,0.8,1.4,1.2,2.4,1.4l2.3,0.5v0.7h-19.2v-0.7
			L242.9,233.4z"/>
		<path class="st2" d="M262.3,233.4c0.9-0.2,1.7-0.7,2.4-1.4c0.6-0.8,0.9-1.7,0.9-2.6v-25c0-0.9-0.3-1.8-0.9-2.6
			c-0.6-0.8-1.4-1.2-2.4-1.4l-2.3-0.5v-0.7h13.7v30.1c0,0.9,0.3,1.8,0.9,2.6c0.6,0.8,1.4,1.2,2.4,1.4l2.3,0.5v0.7H260v-0.7
			L262.3,233.4z M272.3,193.5c-1.7,1.7-4.3,1.7-6,0.2c-1.7-1.7-1.7-4.3-0.2-6c1.7-1.7,4.3-1.7,6-0.2c0.8,0.8,1.3,1.9,1.3,3.1
			C273.5,191.6,273,192.6,272.3,193.5L272.3,193.5z"/>
		<path class="st2" d="M148.6,235.6c-3.6,0.5-8.9,0.2-12.1-1.2c-3.2-1.4-6-3.6-8.2-6.4c-2.1-2.7-3.7-5.8-4.8-9.1
			c-1.1-3.3-1.8-6.6-2.1-9.9c-0.4-3.3-0.5-6.8-0.2-10.2c0.3-3.4,1-6.8,2-10c2-6.6,5.6-12.5,10.5-17.3c5.1-4.7,11.3-7.8,18.1-9.2
			c6.7-1.3,13.5-1.4,20.2-0.3c6.6,1.1,13.1,2.8,19.4,5.2c6.3,2.3,12.4,5,18.4,7.7c3,1.4,6,2.5,9.1,3.4c3,0.9,6.2,1.3,9.4,1.1
			c3.1-0.2,6.1-1.1,8.8-2.8c1.3-0.8,2.4-1.9,3.3-3.2c0.5-0.6,0.8-1.3,1.2-2c0.4-0.7,0.7-1.4,0.9-2.2c2-5.8,0.8-13-3.5-17.4
			c-2.1-2.2-5-3.6-8.1-3.7c-3.1-0.1-6.1,1.1-8.3,3.3c-2.2,2.1-3.7,5.2-3,8.1c0.8,3,2.7,5.7,5.2,8c-3.2-1.5-5.6-4.2-6.7-7.6
			c-0.5-1.7-0.5-3.6,0.3-5.4c0.7-1.7,1.7-3.1,3-4.4c1.2-1.3,2.7-2.3,4.3-3c1.7-0.7,3.4-1.1,5.2-1.1c3.6,0.1,7.1,1.6,9.6,4.2
			c0.6,0.6,1.2,1.3,1.7,2c1.5,2.2,2.5,4.6,3,7.3c0.7,3.5,0.5,7.1-0.6,10.4c-0.3,0.8-0.6,1.7-1,2.4c-0.4,0.8-0.9,1.5-1.4,2.3
			c-1.1,1.4-2.4,2.7-3.9,3.7c-3,1.9-6.4,3-9.9,3.2c-3.4,0.2-6.9-0.2-10.2-1.2c-3.3-0.9-6.4-2.1-9.5-3.5c-6.1-2.7-12.1-5.3-18.3-7.6
			c-6.1-2.4-12.5-4-19-5c-6.4-1.1-13-0.9-19.3,0.3c-6.3,1.3-12.1,4.2-16.9,8.6c-4.6,4.5-8,10.1-9.9,16.2c-1.9,6.2-2.5,12.7-1.7,19.1
			c0.3,3.2,1,6.4,2,9.4c1,3,2.4,5.8,4.4,8.3c3.8,4.9,5.3,7.9,11.3,7.1"/>
		<path class="st2" d="M135.3,170.9c-0.8-2-1.1-4.1-1.1-6.1c0-2.3,1.1-4.3,2.8-5.7c1.7-1.1,3.6-2.2,5.5-3.1c0.9-0.5,1.7-1,2.4-1.7
			c0.6-0.7,1.1-1.5,1.3-2.4l0,0c0.1-0.3,0.5-0.5,0.8-0.5c0.2,0.1,0.5,0.3,0.5,0.5c0.3,2,0.3,4,0,6.1c-0.2,2-1.1,4-2.5,5.5
			c-1.4,1.4-3.3,2.4-4.9,3.5c-1.7,0.9-3,2.4-3.7,4.2c0.3-2,1.8-3.6,3.4-4.7c1.6-1.1,3.3-2.2,4.5-3.6c1.2-1.4,1.9-3.2,2-5.1
			c0.2-1.9,0.2-3.8-0.1-5.7l1.3,0.1c-0.3,1.1-0.8,2.1-1.7,3c-0.8,0.8-1.7,1.4-2.7,1.8c-1.9,0.9-3.8,1.8-5.5,2.9
			c-1.6,1.1-2.7,3-2.7,4.9C134.7,166.8,134.8,168.9,135.3,170.9z"/>
		<path class="st2" d="M136,169.9c-0.2-1.7,0.2-3.6,1.1-5.2c0.5-0.8,1.1-1.5,2-2c0.7-0.5,1.4-0.9,2-1.4c1.4-0.9,2.6-2,3.6-3.3
			c1-1.4,1.7-2.9,2.1-4.6c0.1,1.8-0.4,3.6-1.3,5.1c-0.9,1.5-2.2,2.8-3.6,3.9c-0.7,0.5-1.4,1-2.2,1.4c-0.7,0.4-1.3,0.9-1.7,1.5
			C136.9,166.7,136.3,168.2,136,169.9z"/>
		<path class="st2" d="M181.9,165.3c0.2-2,0.9-3.9,1.9-5.5c1-1.8,2.8-3.1,4.9-3.4c2-0.2,3.9-0.2,5.9-0.2c0.9,0.1,1.8-0.1,2.7-0.3
			c0.8-0.3,1.6-0.8,2.2-1.4l0,0c0.2-0.2,0.7-0.2,0.9,0c0.2,0.2,0.2,0.5,0.2,0.7c-0.7,1.7-1.6,3.5-2.7,5c-1.1,1.6-2.7,2.8-4.6,3.4
			c-1.8,0.4-3.7,0.6-5.5,0.6c-1.8-0.1-3.6,0.6-5,1.7c1.1-1.5,3.1-2.1,4.9-2.4c1.8-0.2,3.7-0.3,5.3-0.9c1.6-0.6,3-1.7,3.9-3.2
			c1-1.4,1.8-3,2.5-4.7l1.1,0.7c-0.8,0.8-1.7,1.4-2.7,1.7c-1,0.2-2,0.4-3,0.3c-2-0.1-3.9-0.2-5.8-0.2c-1.8,0.2-3.5,1.2-4.5,2.8
			C183.3,161.7,182.5,163.4,181.9,165.3z"/>
		<path class="st2" d="M182.9,164.8c0.6-1.6,1.7-2.9,3.2-3.8c0.8-0.5,1.6-0.7,2.5-0.8c0.8-0.1,1.6-0.1,2.4-0.2
			c1.5-0.2,3-0.5,4.5-1.1c1.4-0.7,2.7-1.6,3.8-2.7c-0.8,1.5-1.9,2.8-3.3,3.6c-1.4,0.8-3.1,1.4-4.7,1.5c-0.8,0.1-1.7,0.2-2.4,0.2
			c-0.7,0-1.4,0.2-2.1,0.5C185.2,162.6,184,163.6,182.9,164.8z"/>
		<path class="st2" d="M201.3,171.9c0.2-1.5,0.7-3,1.4-4.3c0.8-1.4,2.2-2.4,3.9-2.7c1.5-0.2,3-0.2,4.6-0.2c0.7,0,1.4-0.1,2-0.2
			c0.6-0.2,1.1-0.5,1.6-1.1l0,0c0.2-0.2,0.6-0.2,0.9,0l0,0c0.2,0.2,0.2,0.5,0.2,0.7c-0.5,1.4-1.2,2.7-2,3.9
			c-0.9,1.3-2.1,2.2-3.6,2.7c-1.4,0.3-2.9,0.5-4.3,0.5c-1.4-0.1-2.8,0.4-3.9,1.3c1-1.1,2.4-1.7,3.8-1.9c1.4-0.1,2.7-0.4,4.1-0.8
			c1.2-0.5,2.3-1.4,3-2.5c0.8-1.1,1.4-2.4,1.9-3.6l1.1,0.7c-0.6,0.6-1.4,1.1-2.2,1.4c-0.8,0.2-1.6,0.3-2.4,0.2
			c-1.5-0.1-3-0.2-4.5-0.2c-1.4,0.2-2.7,0.9-3.4,2.1C202.3,169.1,201.7,170.5,201.3,171.9z"/>
		<path class="st2" d="M202,171.5c0.5-1.2,1.3-2.3,2.4-3c0.6-0.4,1.3-0.6,2-0.6c0.6-0.1,1.2-0.1,1.8-0.2c1.1-0.2,2.4-0.4,3.4-0.8
			c1.1-0.5,2.1-1.1,3-2c-0.5,1.2-1.4,2.2-2.5,2.9c-1.1,0.7-2.4,1.1-3.7,1.2c-0.6,0.1-1.3,0.2-1.9,0.2c-0.5,0-1.1,0.1-1.6,0.3
			C203.9,169.9,202.9,170.6,202,171.5z"/>
		<path class="st2" d="M222,179.5c-0.2-1.3-0.2-2.7,0.1-3.9c0.3-1.4,1.2-2.7,2.6-3.3c1.2-0.5,2.5-0.9,3.8-1.2
			c0.6-0.2,1.1-0.4,1.6-0.7c0.5-0.3,0.8-0.8,1.1-1.2l0,0c0.2-0.3,0.6-0.4,0.9-0.2c0.2,0.2,0.3,0.4,0.3,0.6c-0.1,1.3-0.4,2.6-0.8,3.8
			c-0.5,1.3-1.3,2.4-2.4,3.1c-1.1,0.6-2.3,1.1-3.5,1.4c-1.2,0.3-2.2,1-3,2c0.5-1.1,1.5-2,2.7-2.5c1.1-0.5,2.2-1,3.2-1.7
			c0.9-0.7,1.5-1.7,1.8-2.7c0.4-1.1,0.6-2.3,0.7-3.4l1.2,0.3c-0.4,0.7-0.9,1.3-1.5,1.7s-1.3,0.6-2,0.8c-1.3,0.3-2.6,0.6-3.7,1
			c-1.1,0.5-2,1.4-2.4,2.5C222.2,176.9,222,178.2,222,179.5z"/>
		<path class="st2" d="M222.5,179c0.1-1.1,0.5-2.3,1.2-3.1c0.4-0.5,0.9-0.8,1.5-1.1c0.5-0.2,1-0.4,1.4-0.6c0.9-0.4,1.8-0.9,2.7-1.5
			c0.8-0.7,1.5-1.4,2-2.4c-0.2,1.1-0.6,2.2-1.4,3c-0.8,0.8-1.7,1.5-2.8,2c-0.5,0.2-1.1,0.4-1.6,0.5c-0.5,0.1-0.8,0.3-1.2,0.6
			C223.7,177.2,223,178.1,222.5,179z"/>
		<path class="st2" d="M147.6,164.4c0.5,1.7,1.3,3.4,2.4,4.9c0.9,1.4,2.5,2.4,4.2,2.6c1.7,0.1,3.6-0.1,5.5-0.2c1-0.1,2,0,2.9,0.3
			c1,0.3,1.9,0.8,2.6,1.6l-1.1,0.7c-0.6-1.6-1.4-3-2.4-4.4c-0.9-1.4-2.2-2.4-3.7-3c-1.7-0.5-3.3-0.8-5-0.8c-1.7-0.2-3.6-0.8-4.6-2.3
			c1.3,1.1,3,1.7,4.7,1.7s3.5,0.2,5.2,0.5c1.7,0.5,3.3,1.7,4.4,3.2c1.1,1.4,2,3,2.6,4.7c0.2,0.3,0,0.7-0.4,0.8
			c-0.2,0.1-0.5,0-0.7-0.2l0,0c-0.5-0.6-1.3-1.1-2-1.3c-0.8-0.2-1.7-0.3-2.5-0.2c-1.8,0.1-3.7,0.1-5.5-0.1c-2-0.3-3.6-1.5-4.6-3.2
			C148.5,168,147.9,166.2,147.6,164.4z"/>
		<path class="st2" d="M148.6,164.9c1,1.1,2.1,2,3.4,2.7c0.6,0.3,1.3,0.4,2,0.4c0.8,0,1.5,0.1,2.4,0.2c1.6,0.2,3.1,0.7,4.5,1.4
			c1.4,0.8,2.4,2,3.1,3.4c-1.1-1.1-2.3-1.9-3.6-2.5c-1.4-0.5-2.7-0.9-4.2-1.1c-0.7-0.1-1.4-0.2-2.2-0.2c-0.8,0-1.7-0.3-2.4-0.7
			C150.2,167.6,149.2,166.3,148.6,164.9z"/>
		<path class="st2" d="M171.8,163.7c0,1.8,0.4,3.6,1.1,5.3c0.5,1.7,1.8,3,3.5,3.6c1.7,0.5,3.5,0.8,5.3,1.2c1,0.2,1.9,0.5,2.7,1
			c0.9,0.5,1.6,1.3,2.1,2.2l-1.2,0.4c-0.2-1.7-0.6-3.3-1.2-4.9c-0.5-1.5-1.5-2.9-2.9-3.8c-1.4-0.8-3-1.5-4.6-2
			c-1.6-0.6-3.3-1.7-3.9-3.3c1,1.4,2.5,2.4,4.2,2.7c1.7,0.4,3.4,1,4.9,1.7c1.6,1,2.8,2.4,3.4,4.2c0.7,1.7,1.1,3.4,1.4,5.2
			c0.1,0.4-0.2,0.7-0.5,0.7c-0.2,0-0.5-0.1-0.6-0.3l0,0c-0.4-0.7-1-1.3-1.7-1.7c-0.8-0.4-1.6-0.7-2.4-0.8c-1.8-0.4-3.6-0.8-5.4-1.4
			c-1.8-0.8-3.2-2.4-3.7-4.3C171.8,167.4,171.6,165.5,171.8,163.7z"/>
		<path class="st2" d="M172.7,164.4c0.7,1.3,1.6,2.5,2.7,3.4c0.5,0.4,1.1,0.7,1.8,0.8c0.8,0.2,1.5,0.5,2.2,0.7
			c1.5,0.5,2.9,1.4,4,2.5c1.1,1.1,1.9,2.5,2.2,4.1c-0.8-1.3-1.7-2.4-2.9-3.3c-1.1-0.8-2.4-1.5-3.8-2c-0.7-0.3-1.4-0.5-2-0.8
			c-0.8-0.2-1.5-0.7-2.1-1.3C173.6,167.4,172.9,166,172.7,164.4z"/>
		<path class="st2" d="M195,170.6c-0.4,1.5-0.5,3.1-0.3,4.6c0.1,1.4,0.8,2.8,2,3.6c1.3,0.8,2.7,1.4,4.1,2.2c0.8,0.4,1.4,0.8,2.1,1.4
			c0.6,0.7,1.1,1.4,1.3,2.4h-1.1c0.2-1.4,0.2-2.8,0.1-4.2c-0.1-1.4-0.6-2.7-1.4-3.8c-1-1.1-2.1-2-3.3-2.8c-1.2-0.9-2.3-2.1-2.5-3.6
			c0.5,1.4,1.6,2.5,2.9,3.2c1.4,0.8,2.6,1.6,3.7,2.6c1.1,1.2,1.8,2.7,2,4.3c0.2,1.5,0.2,3.1,0,4.6c-0.1,0.4-0.4,0.6-0.7,0.5
			c-0.2,0-0.5-0.2-0.5-0.5l0,0c-0.2-0.7-0.5-1.3-1-1.7c-0.5-0.5-1.1-0.9-1.7-1.2c-1.4-0.8-2.8-1.5-4.1-2.4c-1.4-1.1-2.1-2.7-2.1-4.4
			C194.1,173.6,194.4,172,195,170.6z"/>
		<path class="st2" d="M195.5,171.3c0.3,1.2,0.8,2.4,1.5,3.4c0.4,0.5,0.8,0.8,1.3,1.1c0.6,0.3,1.1,0.7,1.7,1.1c1.1,0.8,2,1.8,2.7,3
			c0.7,1.2,1,2.6,0.8,3.9c-0.4-1.2-0.9-2.4-1.7-3.3c-0.8-1-1.7-1.8-2.7-2.5c-0.5-0.4-1.1-0.8-1.5-1.1c-0.6-0.4-1.1-0.9-1.5-1.6
			C195.6,174,195.3,172.7,195.5,171.3z"/>
		<path class="st2" d="M214.2,178.5c-0.3,1.4-0.4,2.7-0.2,4.1c0.1,1.3,0.8,2.5,1.8,3.2c1.1,0.7,2.4,1.3,3.6,1.9
			c0.7,0.3,1.3,0.8,1.9,1.3c0.5,0.6,1,1.3,1.1,2.1l-1.2,0.1c0.2-1.3,0.2-2.5,0.1-3.8c-0.1-1.2-0.5-2.4-1.3-3.3
			c-0.9-0.9-1.9-1.7-3-2.4c-1.1-0.8-1.9-2-2.2-3.3c0.5,1.2,1.4,2.2,2.6,2.8c1.2,0.6,2.3,1.4,3.3,2.3c1,1.1,1.6,2.4,1.7,3.9
			c0.2,1.4,0.2,2.7,0,4.1c0,0.4-0.4,0.6-0.7,0.5c-0.2,0-0.5-0.2-0.5-0.5l0,0c-0.2-0.5-0.5-1.1-0.8-1.5c-0.5-0.5-1-0.8-1.5-1.1
			c-1.3-0.7-2.5-1.4-3.6-2.2c-1.2-1-1.9-2.4-1.9-4C213.4,181.2,213.7,179.9,214.2,178.5z"/>
		<path class="st2" d="M214.6,179.2c0.3,1.1,0.8,2.1,1.4,3c0.3,0.4,0.7,0.7,1.1,0.9c0.5,0.3,1.1,0.6,1.5,1c1,0.7,1.8,1.6,2.4,2.7
			s0.8,2.3,0.7,3.5c-0.3-1.1-0.8-2-1.5-3c-0.7-0.8-1.5-1.6-2.4-2.2c-0.5-0.3-0.9-0.6-1.4-0.9c-0.5-0.4-1.1-0.8-1.4-1.4
			C214.6,181.7,214.5,180.4,214.6,179.2z"/>
	</g>
</g>
<line class="st1" x1="423.1" y1="-1.5" x2="824.3" y2="399.8"/>
<line class="st1" x1="824.3" y1="-1.5" x2="423.1" y2="399.8"/>
<g>
	<rect x="519.1" y="146" class="st0" width="209" height="104"/>
</g>
<g>
	<path class="st2" d="M581.9,163.4c-0.2-2.1,0.2-4.2,0.8-6.2c0.7-2.1,2.3-3.8,4.4-4.6c2-0.6,4.1-1.1,6.1-1.4c1-0.2,1.9-0.5,2.8-0.9
		c0.8-0.5,1.5-1.1,2-1.9l0,0c0.2-0.3,0.6-0.4,0.9-0.2c0.2,0.2,0.3,0.4,0.3,0.6c-0.3,2-0.9,3.9-1.7,5.8c-0.8,1.9-2.3,3.5-4,4.6
		c-1.8,1-3.8,1.4-5.7,1.8c-1.9,0.4-3.6,1.4-4.9,3c0.9-1.8,2.8-2.9,4.6-3.5s3.8-1.1,5.4-2.1c1.6-1,2.7-2.5,3.5-4.2s1.3-3.6,1.6-5.5
		l1.1,0.5c-0.6,1-1.4,1.7-2.4,2.4c-1,0.5-2,0.8-3.1,1c-2,0.4-4.1,0.6-6.1,1.1c-1.9,0.6-3.4,2-4.1,3.9
		C582.5,159.3,582,161.4,581.9,163.4z"/>
	<path class="st2" d="M581.8,162.6c0.4-1.7,1.2-3.3,2.5-4.6c0.7-0.6,1.5-1.1,2.4-1.4c0.8-0.2,1.6-0.5,2.4-0.8c1.6-0.5,3-1.2,4.4-2.1
		c1.4-1,2.5-2.3,3.3-3.7c-0.5,1.7-1.4,3.3-2.7,4.5c-1.4,1.1-3,2-4.6,2.6c-0.8,0.3-1.7,0.5-2.5,0.7c-0.8,0.2-1.4,0.5-2.1,0.9
		C583.7,159.9,582.6,161.2,581.8,162.6z"/>
	<g>
		<path class="st2" d="M588.7,220c-0.5,4.4-2.7,8.5-6.1,11.3c-1.7,1.4-3.6,2.5-5.8,3.3c-2.2,0.8-4.6,1.2-6.9,1.2
			c-3.3,0-6.4-0.6-9.4-1.8c-2.9-1.1-5.5-3-7.7-5.2c-5.1-5.2-7.7-12.2-7.7-21s2.5-15.9,7.6-21.1c2.1-2.2,4.6-3.9,7.5-5.1
			c2.8-1.2,5.8-1.8,9-1.8c4.5,0,8.1,0.8,10.9,2.2c2.5,1.2,4.6,3,6.1,5.3c1.1,1.7,1.8,3.6,1.9,5.7c0,1.7-0.5,3.3-1.6,4.8
			c-1.1,1.5-2.9,2.4-4.7,2.3c-1.2,0-2.4-0.5-3.4-1.2c-0.9-0.6-1.4-1.6-1.5-2.7c0.9-0.2,1.7-0.8,2.2-1.5c0.5-0.7,0.8-1.5,0.9-2.4
			c0-2.7-0.7-5.2-2-7.4c-1.4-2.3-4-3.5-7.9-3.5c-4.2,0-7.4,1.8-9.9,5.5c-3,4.5-4.6,11.5-4.6,21c0,9.6,1.6,16.6,4.7,20.9
			c1.2,1.7,2.8,3.2,4.7,4.2c2,0.9,4.1,1.4,6.2,1.4c1.7,0,3.5-0.4,5.1-1.1c1.7-0.8,3.4-1.7,4.9-3c1.5-1.3,2.8-2.8,3.7-4.5
			c1-1.7,1.6-3.6,1.9-5.6L588.7,220z"/>
		<path class="st2" d="M626.6,233.9v0.7H613v-3.6c-1.4,1.7-3.3,3-5.3,3.8c-1.5,0.7-3.2,1-4.9,0.9c-4.3,0-7.7-0.8-10.1-2.5
			c-2.4-1.5-3.7-4.2-3.6-7.1c0-1.6,0.5-3.1,1.5-4.3c1.2-1.6,2.7-2.9,4.5-3.8c2.4-1.4,5.2-2.3,7.9-2.8c3.3-0.7,6.7-1,10-1v-4.6
			c0-3.4-0.5-5.9-1.4-7.4s-2.6-2.2-5.2-2.2c-1.6-0.1-3.1,0.4-4.4,1.3c-1.1,0.9-1.7,2.3-1.7,3.7c0,0.9,0.3,1.7,0.8,2.4
			c0.5,0.8,1.3,1.3,2.2,1.5c-0.1,1.1-0.6,2-1.5,2.7c-1,0.8-2.2,1.2-3.4,1.2c-2.1,0-3.7-0.6-4.8-1.9c-1-1.2-1.5-2.8-1.5-4.4
			c0-1.7,0.8-3.3,2-4.5c1.5-1.4,3.4-2.4,5.4-3c2.2-0.7,4.5-1.1,6.8-1.1c4.5,0,8,1.1,10.7,3.1c2.6,2,4,5.1,3.9,8.3v19.8
			c0,0.9,0.3,1.8,0.9,2.6c0.6,0.8,1.4,1.2,2.4,1.4L626.6,233.9z M613,216.7c-4.4,0-7.7,0.8-10,2.6s-3.4,4.2-3.5,7.6
			c-0.1,1.7,0.5,3.4,1.6,4.7c0.9,1.1,2.4,1.8,3.9,1.8c1.1,0,2.1-0.2,3-0.8c1.1-0.7,2-1.4,2.9-2.4c0.9-0.9,1.6-2,2-3.1L613,216.7z"/>
		<path class="st2" d="M664.8,233.9v0.7h-13.7v-3.6c-1.4,1.7-3.3,3-5.3,3.8c-1.5,0.7-3.2,1-4.9,0.9c-4.3,0-7.7-0.8-10.1-2.5
			c-2.4-1.5-3.7-4.2-3.6-7.1c0-1.6,0.5-3.1,1.5-4.3c1.2-1.6,2.7-2.9,4.5-3.8c2.4-1.4,5.2-2.3,7.9-2.8c3.3-0.7,6.7-1,10-1v-4.6
			c0-3.4-0.5-5.9-1.4-7.4c-0.9-1.4-2.7-2.2-5.2-2.2c-1.6-0.1-3.1,0.4-4.4,1.3c-1.1,0.9-1.7,2.3-1.7,3.7c0,0.9,0.3,1.7,0.8,2.4
			c0.5,0.8,1.3,1.3,2.2,1.5c-0.1,1.1-0.6,2-1.5,2.7c-1,0.8-2.2,1.2-3.4,1.2c-2.1,0-3.7-0.6-4.8-1.9c-1-1.2-1.5-2.8-1.5-4.4
			c0-1.7,0.8-3.3,2-4.5c1.5-1.4,3.4-2.4,5.4-3c2.2-0.7,4.5-1.1,6.8-1.1c4.5,0,8,1.1,10.7,3.1c2.6,2,4,5.1,3.9,8.3v19.8
			c0,0.9,0.3,1.8,0.9,2.6c0.6,0.8,1.4,1.2,2.4,1.4L664.8,233.9z M651.1,216.7c-4.4,0-7.7,0.8-10,2.6s-3.5,4.2-3.5,7.6
			c-0.1,1.7,0.5,3.4,1.6,4.7c1,1.2,2.4,1.9,3.9,1.9c1.1,0,2.1-0.2,3-0.8c1.1-0.7,2-1.4,2.9-2.4c0.9-0.9,1.6-2,2-3.1V216.7z"/>
		<path class="st2" d="M666,233.4c0.9-0.2,1.7-0.7,2.4-1.4c0.6-0.8,0.9-1.7,0.9-2.6V186c0-0.9-0.3-1.8-0.9-2.6
			c-0.6-0.8-1.4-1.2-2.4-1.4l-2.3-0.5v-0.7h13.7v48.6c0,0.9,0.3,1.8,0.9,2.6c0.6,0.8,1.4,1.2,2.4,1.4l2.3,0.5v0.7h-19.2v-0.7
			L666,233.4z"/>
		<path class="st2" d="M685.4,233.4c0.9-0.2,1.7-0.7,2.4-1.4c0.6-0.8,0.9-1.7,0.9-2.6v-25c0-0.9-0.3-1.8-0.9-2.6
			c-0.6-0.8-1.4-1.2-2.4-1.4l-2.3-0.5v-0.7h13.7v30.1c0,0.9,0.3,1.8,0.9,2.6c0.6,0.8,1.4,1.2,2.4,1.4l2.3,0.5v0.7h-19.2v-0.7
			L685.4,233.4z M695.4,193.5c-1.7,1.7-4.3,1.7-6,0.2c-1.7-1.7-1.7-4.3-0.2-6c1.7-1.7,4.3-1.7,6-0.2c0.8,0.8,1.3,1.9,1.3,3.1
			C696.6,191.6,696.1,192.6,695.4,193.5L695.4,193.5z"/>
		<path class="st2" d="M571.7,235.6c-3.6,0.5-8.9,0.2-12.1-1.2c-3.2-1.4-6-3.6-8.2-6.4c-2.1-2.7-3.7-5.8-4.8-9.1
			c-1.1-3.3-1.8-6.6-2.1-9.9c-0.4-3.3-0.5-6.8-0.2-10.2c0.3-3.4,1-6.8,2-10c2-6.6,5.6-12.5,10.5-17.3c5.1-4.7,11.3-7.8,18.1-9.2
			c6.7-1.3,13.5-1.4,20.2-0.3c6.6,1.1,13.1,2.8,19.4,5.2c6.3,2.3,12.4,5,18.4,7.7c3,1.4,6,2.5,9.1,3.4c3,0.9,6.2,1.3,9.4,1.1
			c3.1-0.2,6.1-1.1,8.8-2.8c1.3-0.8,2.4-1.9,3.3-3.2c0.5-0.6,0.8-1.3,1.2-2s0.7-1.4,0.9-2.2c2-5.8,0.8-13-3.5-17.4
			c-2.1-2.2-5-3.6-8.1-3.7c-3.1-0.1-6.1,1.1-8.3,3.3c-2.2,2.1-3.7,5.2-3,8.1c0.8,3,2.7,5.7,5.2,8c-3.2-1.5-5.6-4.2-6.7-7.6
			c-0.5-1.7-0.5-3.6,0.3-5.4c0.7-1.7,1.7-3.1,3-4.4c1.2-1.3,2.7-2.3,4.3-3c1.7-0.7,3.4-1.1,5.2-1.1c3.6,0.1,7.1,1.6,9.6,4.2
			c0.6,0.6,1.2,1.3,1.7,2c1.5,2.2,2.5,4.6,3,7.3c0.7,3.5,0.5,7.1-0.6,10.4c-0.3,0.8-0.6,1.7-1,2.4s-0.9,1.5-1.4,2.3
			c-1.1,1.4-2.4,2.7-3.9,3.7c-3,1.9-6.4,3-9.9,3.2c-3.4,0.2-6.9-0.2-10.2-1.2c-3.3-0.9-6.4-2.1-9.5-3.5c-6.1-2.7-12.1-5.3-18.3-7.6
			c-6.1-2.4-12.5-4-19-5c-6.4-1.1-13-0.9-19.3,0.3c-6.3,1.3-12.1,4.2-16.9,8.6c-4.6,4.5-8,10.1-9.9,16.2c-1.9,6.2-2.5,12.7-1.7,19.1
			c0.3,3.2,1,6.4,2,9.4c1,3,2.4,5.8,4.4,8.3c3.8,4.9,5.3,7.9,11.3,7.1"/>
		<path class="st2" d="M558.4,170.9c-0.8-2-1.1-4.1-1.1-6.1c0-2.3,1.1-4.3,2.8-5.7c1.7-1.1,3.6-2.2,5.5-3.1c0.9-0.5,1.7-1,2.4-1.7
			c0.6-0.7,1.1-1.5,1.3-2.4l0,0c0.1-0.3,0.5-0.5,0.8-0.5c0.2,0.1,0.5,0.3,0.5,0.5c0.3,2,0.3,4,0,6.1c-0.2,2-1.1,4-2.5,5.5
			c-1.4,1.4-3.3,2.4-4.9,3.5c-1.7,0.9-3,2.4-3.7,4.2c0.3-2,1.8-3.6,3.4-4.7c1.6-1.1,3.3-2.2,4.5-3.6c1.2-1.4,1.9-3.2,2-5.1
			c0.2-1.9,0.2-3.8-0.1-5.7l1.3,0.1c-0.3,1.1-0.8,2.1-1.7,3c-0.8,0.8-1.7,1.4-2.7,1.8c-1.9,0.9-3.8,1.8-5.5,2.9
			c-1.6,1.1-2.7,3-2.7,4.9C557.8,166.8,557.9,168.9,558.4,170.9z"/>
		<path class="st2" d="M559,169.9c-0.2-1.7,0.2-3.6,1.1-5.2c0.5-0.8,1.1-1.5,2-2c0.7-0.5,1.4-0.9,2-1.4c1.4-0.9,2.6-2,3.6-3.3
			c1-1.4,1.7-2.9,2.1-4.6c0.1,1.8-0.4,3.6-1.3,5.1c-0.9,1.5-2.2,2.8-3.6,3.9c-0.7,0.5-1.4,1-2.2,1.4c-0.7,0.4-1.3,0.9-1.7,1.5
			C560,166.7,559.3,168.2,559,169.9z"/>
		<path class="st2" d="M605,165.3c0.2-2,0.9-3.9,1.9-5.5c1-1.8,2.8-3.1,4.9-3.4c2-0.2,3.9-0.2,5.9-0.2c0.9,0.1,1.8-0.1,2.7-0.3
			c0.8-0.3,1.6-0.8,2.2-1.4l0,0c0.2-0.2,0.7-0.2,0.9,0c0.2,0.2,0.2,0.5,0.2,0.7c-0.7,1.7-1.6,3.5-2.7,5c-1.1,1.6-2.7,2.8-4.6,3.4
			c-1.8,0.4-3.7,0.6-5.5,0.6c-1.8-0.1-3.6,0.6-5,1.7c1.1-1.5,3.1-2.1,4.9-2.4s3.7-0.3,5.3-0.9s3-1.7,3.9-3.2c1-1.4,1.8-3,2.5-4.7
			l1.1,0.7c-0.8,0.8-1.7,1.4-2.7,1.7c-1,0.2-2,0.4-3,0.3c-2-0.1-3.9-0.2-5.8-0.2c-1.8,0.2-3.5,1.2-4.5,2.8
			C606.4,161.7,605.5,163.4,605,165.3z"/>
		<path class="st2" d="M606,164.8c0.6-1.6,1.7-2.9,3.2-3.8c0.8-0.5,1.6-0.7,2.5-0.8c0.8-0.1,1.6-0.1,2.4-0.2c1.5-0.2,3-0.5,4.5-1.1
			c1.4-0.7,2.7-1.6,3.8-2.7c-0.8,1.5-1.9,2.8-3.3,3.6c-1.4,0.8-3.1,1.4-4.7,1.5c-0.8,0.1-1.7,0.2-2.4,0.2c-0.7,0-1.4,0.2-2.1,0.5
			C608.3,162.6,607.1,163.6,606,164.8z"/>
		<path class="st2" d="M624.4,171.9c0.2-1.5,0.7-3,1.4-4.3c0.8-1.4,2.2-2.4,3.9-2.7c1.5-0.2,3-0.2,4.6-0.2c0.7,0,1.4-0.1,2-0.2
			c0.6-0.2,1.1-0.5,1.6-1.1l0,0c0.2-0.2,0.6-0.2,0.9,0l0,0c0.2,0.2,0.2,0.5,0.2,0.7c-0.5,1.4-1.2,2.7-2,3.9
			c-0.9,1.3-2.1,2.2-3.6,2.7c-1.4,0.3-2.9,0.5-4.3,0.5c-1.4-0.1-2.8,0.4-3.9,1.3c1-1.1,2.4-1.7,3.8-1.9c1.4-0.1,2.7-0.4,4.1-0.8
			c1.2-0.5,2.3-1.4,3-2.5c0.8-1.1,1.4-2.4,1.9-3.6l1.1,0.7c-0.6,0.6-1.4,1.1-2.2,1.4c-0.8,0.2-1.6,0.3-2.4,0.2
			c-1.5-0.1-3-0.2-4.5-0.2c-1.4,0.2-2.7,0.9-3.4,2.1C625.4,169.1,624.7,170.5,624.4,171.9z"/>
		<path class="st2" d="M625.1,171.5c0.5-1.2,1.3-2.3,2.4-3c0.6-0.4,1.3-0.6,2-0.6c0.6-0.1,1.2-0.1,1.8-0.2c1.1-0.2,2.4-0.4,3.4-0.8
			c1.1-0.5,2.1-1.1,3-2c-0.5,1.2-1.4,2.2-2.5,2.9c-1.1,0.7-2.4,1.1-3.7,1.2c-0.6,0.1-1.3,0.2-1.9,0.2c-0.5,0-1.1,0.1-1.6,0.3
			C626.9,169.9,626,170.6,625.1,171.5z"/>
		<path class="st2" d="M645.1,179.5c-0.2-1.3-0.2-2.7,0.1-3.9c0.3-1.4,1.2-2.7,2.6-3.3c1.2-0.5,2.5-0.9,3.8-1.2
			c0.6-0.2,1.1-0.4,1.6-0.7c0.5-0.3,0.8-0.8,1.1-1.2l0,0c0.2-0.3,0.6-0.4,0.9-0.2c0.2,0.2,0.3,0.4,0.3,0.6c-0.1,1.3-0.4,2.6-0.8,3.8
			c-0.5,1.3-1.3,2.4-2.4,3.1c-1.1,0.6-2.3,1.1-3.5,1.4c-1.2,0.3-2.2,1-3,2c0.5-1.1,1.5-2,2.7-2.5c1.1-0.5,2.2-1,3.2-1.7
			c0.9-0.7,1.5-1.7,1.8-2.7c0.4-1.1,0.6-2.3,0.7-3.4l1.2,0.3c-0.4,0.7-0.9,1.3-1.5,1.7c-0.6,0.4-1.3,0.6-2,0.8
			c-1.3,0.3-2.6,0.6-3.7,1c-1.1,0.5-2,1.4-2.4,2.5C645.3,176.9,645.1,178.2,645.1,179.5z"/>
		<path class="st2" d="M645.6,179c0.1-1.1,0.5-2.3,1.2-3.1c0.4-0.5,0.9-0.8,1.5-1.1c0.5-0.2,1-0.4,1.4-0.6c0.9-0.4,1.8-0.9,2.7-1.5
			c0.8-0.7,1.5-1.4,2-2.4c-0.2,1.1-0.6,2.2-1.4,3c-0.8,0.8-1.7,1.5-2.8,2c-0.5,0.2-1.1,0.4-1.6,0.5c-0.5,0.1-0.8,0.3-1.2,0.6
			C646.7,177.2,646.1,178.1,645.6,179z"/>
		<path class="st2" d="M570.7,164.4c0.5,1.7,1.3,3.4,2.4,4.9c0.9,1.4,2.5,2.4,4.2,2.6c1.7,0.1,3.6-0.1,5.5-0.2c1-0.1,2,0,2.9,0.3
			c1,0.3,1.9,0.8,2.6,1.6l-1.1,0.7c-0.6-1.6-1.4-3-2.4-4.4c-0.9-1.4-2.2-2.4-3.7-3c-1.7-0.5-3.3-0.8-5-0.8c-1.7-0.2-3.6-0.8-4.6-2.3
			c1.3,1.1,3,1.7,4.7,1.7s3.5,0.2,5.2,0.5c1.7,0.5,3.3,1.7,4.4,3.2c1.1,1.4,2,3,2.6,4.7c0.2,0.3,0,0.7-0.4,0.8
			c-0.2,0.1-0.5,0-0.7-0.2l0,0c-0.5-0.6-1.3-1.1-2-1.3c-0.8-0.2-1.7-0.3-2.5-0.2c-1.8,0.1-3.7,0.1-5.5-0.1c-2-0.3-3.6-1.5-4.6-3.2
			C571.6,168,571,166.2,570.7,164.4z"/>
		<path class="st2" d="M571.7,164.9c1,1.1,2.1,2,3.4,2.7c0.6,0.3,1.3,0.4,2,0.4c0.8,0,1.5,0.1,2.4,0.2c1.6,0.2,3.1,0.7,4.5,1.4
			c1.4,0.8,2.4,2,3.1,3.4c-1.1-1.1-2.3-1.9-3.6-2.5c-1.4-0.5-2.7-0.9-4.2-1.1c-0.7-0.1-1.4-0.2-2.2-0.2c-0.8,0-1.7-0.3-2.4-0.7
			C573.3,167.6,572.3,166.3,571.7,164.9z"/>
		<path class="st2" d="M594.9,163.7c0,1.8,0.4,3.6,1.1,5.3c0.5,1.7,1.8,3,3.5,3.6c1.7,0.5,3.5,0.8,5.3,1.2c1,0.2,1.9,0.5,2.7,1
			c0.9,0.5,1.6,1.3,2.1,2.2l-1.2,0.4c-0.2-1.7-0.6-3.3-1.2-4.9c-0.5-1.5-1.5-2.9-2.9-3.8c-1.4-0.8-3-1.5-4.6-2
			c-1.6-0.6-3.3-1.7-3.9-3.3c1,1.4,2.5,2.4,4.2,2.7c1.7,0.4,3.4,1,4.9,1.7c1.6,1,2.8,2.4,3.4,4.2c0.7,1.7,1.1,3.4,1.4,5.2
			c0.1,0.4-0.2,0.7-0.5,0.7c-0.2,0-0.5-0.1-0.6-0.3l0,0c-0.4-0.7-1-1.3-1.7-1.7c-0.8-0.4-1.6-0.7-2.4-0.8c-1.8-0.4-3.6-0.8-5.4-1.4
			c-1.8-0.8-3.2-2.4-3.7-4.3C594.9,167.4,594.7,165.5,594.9,163.7z"/>
		<path class="st2" d="M595.8,164.4c0.7,1.3,1.6,2.5,2.7,3.4c0.5,0.4,1.1,0.7,1.8,0.8c0.8,0.2,1.5,0.5,2.2,0.7
			c1.5,0.5,2.9,1.4,4,2.5c1.1,1.1,1.9,2.5,2.2,4.1c-0.8-1.3-1.7-2.4-2.9-3.3c-1.1-0.8-2.4-1.5-3.8-2c-0.7-0.3-1.4-0.5-2-0.8
			c-0.8-0.2-1.5-0.7-2.1-1.3C596.7,167.4,596,166,595.8,164.4z"/>
		<path class="st2" d="M618.1,170.6c-0.4,1.5-0.5,3.1-0.3,4.6c0.1,1.4,0.8,2.8,2,3.6c1.3,0.8,2.7,1.4,4.1,2.2
			c0.8,0.4,1.4,0.8,2.1,1.4c0.6,0.7,1.1,1.4,1.3,2.4h-1.1c0.2-1.4,0.2-2.8,0.1-4.2c-0.1-1.4-0.6-2.7-1.4-3.8c-1-1.1-2.1-2-3.3-2.8
			c-1.2-0.9-2.3-2.1-2.5-3.6c0.5,1.4,1.6,2.5,2.9,3.2c1.4,0.8,2.6,1.6,3.7,2.6c1.1,1.2,1.8,2.7,2,4.3c0.2,1.5,0.2,3.1,0,4.6
			c-0.1,0.4-0.4,0.6-0.7,0.5c-0.2,0-0.5-0.2-0.5-0.5l0,0c-0.2-0.7-0.5-1.3-1-1.7c-0.5-0.5-1.1-0.9-1.7-1.2c-1.4-0.8-2.8-1.5-4.1-2.4
			c-1.4-1.1-2.1-2.7-2.1-4.4C617.2,173.6,617.5,172,618.1,170.6z"/>
		<path class="st2" d="M618.6,171.3c0.3,1.2,0.8,2.4,1.5,3.4c0.4,0.5,0.8,0.8,1.3,1.1c0.6,0.3,1.1,0.7,1.7,1.1c1.1,0.8,2,1.8,2.7,3
			c0.7,1.2,1,2.6,0.8,3.9c-0.4-1.2-0.9-2.4-1.7-3.3s-1.7-1.8-2.7-2.5c-0.5-0.4-1.1-0.8-1.5-1.1c-0.6-0.4-1.1-0.9-1.5-1.6
			C618.7,174,618.4,172.7,618.6,171.3z"/>
		<path class="st2" d="M637.3,178.5c-0.3,1.4-0.4,2.7-0.2,4.1c0.1,1.3,0.8,2.5,1.8,3.2c1.1,0.7,2.4,1.3,3.6,1.9
			c0.7,0.3,1.3,0.8,1.9,1.3c0.5,0.6,1,1.3,1.1,2.1l-1.2,0.1c0.2-1.3,0.2-2.5,0.1-3.8c-0.1-1.2-0.5-2.4-1.3-3.3
			c-0.9-0.9-1.9-1.7-3-2.4c-1.1-0.8-1.9-2-2.2-3.3c0.5,1.2,1.4,2.2,2.6,2.8c1.2,0.6,2.3,1.4,3.3,2.3c1,1.1,1.6,2.4,1.7,3.9
			c0.2,1.4,0.2,2.7,0,4.1c0,0.4-0.4,0.6-0.7,0.5c-0.2,0-0.5-0.2-0.5-0.5l0,0c-0.2-0.5-0.5-1.1-0.8-1.5c-0.5-0.5-1-0.8-1.5-1.1
			c-1.3-0.7-2.5-1.4-3.6-2.2c-1.2-1-1.9-2.4-1.9-4C636.5,181.2,636.8,179.9,637.3,178.5z"/>
		<path class="st2" d="M637.7,179.2c0.3,1.1,0.8,2.1,1.4,3c0.3,0.4,0.7,0.7,1.1,0.9c0.5,0.3,1.1,0.6,1.5,1c1,0.7,1.8,1.6,2.4,2.7
			s0.8,2.3,0.7,3.5c-0.3-1.1-0.8-2-1.5-3c-0.7-0.8-1.5-1.6-2.4-2.2c-0.5-0.3-0.9-0.6-1.4-0.9c-0.5-0.4-1.1-0.8-1.4-1.4
			C637.7,181.7,637.6,180.4,637.7,179.2z"/>
	</g>
</g>
<line class="st1" x1="847.8" y1="-1.5" x2="1249" y2="399.8"/>
<line class="st1" x1="1249" y1="-1.5" x2="847.8" y2="399.8"/>
<g>
	<rect x="943.8" y="146" class="st0" width="209" height="104"/>
</g>
<g>
	<path class="st2" d="M1006.6,163.4c-0.2-2.1,0.2-4.2,0.8-6.2c0.7-2.1,2.3-3.8,4.4-4.6c2-0.6,4.1-1.1,6.1-1.4c1-0.2,1.9-0.5,2.8-0.9
		c0.8-0.5,1.5-1.1,2-1.9l0,0c0.2-0.3,0.6-0.4,0.9-0.2c0.2,0.2,0.3,0.4,0.3,0.6c-0.3,2-0.9,3.9-1.7,5.8c-0.8,1.9-2.3,3.5-4,4.6
		c-1.8,1-3.8,1.4-5.7,1.8c-1.9,0.4-3.6,1.4-4.9,3c0.9-1.8,2.8-2.9,4.6-3.5c1.8-0.6,3.8-1.1,5.4-2.1c1.6-1,2.7-2.5,3.5-4.2
		c0.8-1.7,1.3-3.6,1.6-5.5l1.1,0.5c-0.6,1-1.4,1.7-2.4,2.4c-1,0.5-2,0.8-3.1,1c-2,0.4-4.1,0.6-6.1,1.1c-1.9,0.6-3.4,2-4.1,3.9
		C1007.2,159.3,1006.6,161.4,1006.6,163.4z"/>
	<path class="st2" d="M1006.5,162.6c0.4-1.7,1.2-3.3,2.5-4.6c0.7-0.6,1.5-1.1,2.4-1.4c0.8-0.2,1.6-0.5,2.4-0.8
		c1.6-0.5,3-1.2,4.4-2.1c1.4-1,2.5-2.3,3.3-3.7c-0.5,1.7-1.4,3.3-2.7,4.5c-1.4,1.1-3,2-4.6,2.6c-0.8,0.3-1.7,0.5-2.5,0.7
		c-0.8,0.2-1.4,0.5-2.1,0.9C1008.4,159.9,1007.3,161.2,1006.5,162.6z"/>
	<g>
		<path class="st2" d="M1013.4,220c-0.5,4.4-2.7,8.5-6.1,11.3c-1.7,1.4-3.6,2.5-5.8,3.3c-2.2,0.8-4.6,1.2-6.9,1.2
			c-3.3,0-6.4-0.6-9.4-1.8c-2.9-1.1-5.5-3-7.7-5.2c-5.1-5.2-7.7-12.2-7.7-21s2.5-15.9,7.6-21.1c2.1-2.2,4.6-3.9,7.5-5.1
			c2.8-1.2,5.8-1.8,9-1.8c4.5,0,8.1,0.8,10.9,2.2c2.5,1.2,4.6,3,6.1,5.3c1.1,1.7,1.8,3.6,1.9,5.7c0,1.7-0.5,3.3-1.6,4.8
			c-1.1,1.5-2.9,2.4-4.7,2.3c-1.2,0-2.4-0.5-3.4-1.2c-0.9-0.6-1.4-1.6-1.5-2.7c0.9-0.2,1.7-0.8,2.2-1.5c0.5-0.7,0.8-1.5,0.9-2.4
			c0-2.7-0.7-5.2-2-7.4c-1.4-2.3-4-3.5-7.9-3.5c-4.2,0-7.4,1.8-9.9,5.5c-3,4.5-4.6,11.5-4.6,21c0,9.6,1.6,16.6,4.7,20.9
			c1.2,1.7,2.8,3.2,4.7,4.2c2,0.9,4.1,1.4,6.2,1.4c1.7,0,3.5-0.4,5.1-1.1c1.7-0.8,3.4-1.7,4.9-3c1.5-1.3,2.8-2.8,3.7-4.5
			c1-1.7,1.6-3.6,1.9-5.6L1013.4,220z"/>
		<path class="st2" d="M1051.3,233.9v0.7h-13.7v-3.6c-1.4,1.7-3.3,3-5.3,3.8c-1.5,0.7-3.2,1-4.9,0.9c-4.3,0-7.7-0.8-10.1-2.5
			c-2.4-1.5-3.7-4.2-3.6-7.1c0-1.6,0.5-3.1,1.5-4.3c1.2-1.6,2.7-2.9,4.5-3.8c2.4-1.4,5.2-2.3,7.9-2.8c3.3-0.7,6.7-1,10-1v-4.6
			c0-3.4-0.5-5.9-1.4-7.4c-0.9-1.4-2.6-2.2-5.2-2.2c-1.6-0.1-3.1,0.4-4.4,1.3c-1.1,0.9-1.7,2.3-1.7,3.7c0,0.9,0.3,1.7,0.8,2.4
			c0.5,0.8,1.3,1.3,2.2,1.5c-0.1,1.1-0.6,2-1.5,2.7c-1,0.8-2.2,1.2-3.4,1.2c-2.1,0-3.7-0.6-4.8-1.9c-1-1.2-1.5-2.8-1.5-4.4
			c0-1.7,0.8-3.3,2-4.5c1.5-1.4,3.4-2.4,5.4-3c2.2-0.7,4.5-1.1,6.8-1.1c4.5,0,8,1.1,10.7,3.1c2.6,2,4,5.1,3.9,8.3v19.8
			c0,0.9,0.3,1.8,0.9,2.6c0.6,0.8,1.4,1.2,2.4,1.4L1051.3,233.9z M1037.7,216.7c-4.4,0-7.7,0.8-10,2.6c-2.3,1.7-3.4,4.2-3.5,7.6
			c-0.1,1.7,0.5,3.4,1.6,4.7c0.9,1.1,2.4,1.8,3.9,1.8c1.1,0,2.1-0.2,3-0.8c1.1-0.7,2-1.4,2.9-2.4c0.9-0.9,1.6-2,2-3.1L1037.7,216.7z
			"/>
		<path class="st2" d="M1089.5,233.9v0.7h-13.7v-3.6c-1.4,1.7-3.3,3-5.3,3.8c-1.5,0.7-3.2,1-4.9,0.9c-4.3,0-7.7-0.8-10.1-2.5
			c-2.4-1.5-3.7-4.2-3.6-7.1c0-1.6,0.5-3.1,1.5-4.3c1.2-1.6,2.7-2.9,4.5-3.8c2.4-1.4,5.2-2.3,7.9-2.8c3.3-0.7,6.7-1,10-1v-4.6
			c0-3.4-0.5-5.9-1.4-7.4c-0.9-1.4-2.7-2.2-5.2-2.2c-1.6-0.1-3.1,0.4-4.4,1.3c-1.1,0.9-1.7,2.3-1.7,3.7c0,0.9,0.3,1.7,0.8,2.4
			c0.5,0.8,1.3,1.3,2.2,1.5c-0.1,1.1-0.6,2-1.5,2.7c-1,0.8-2.2,1.2-3.4,1.2c-2.1,0-3.7-0.6-4.8-1.9c-1-1.2-1.5-2.8-1.5-4.4
			c0-1.7,0.8-3.3,2-4.5c1.5-1.4,3.4-2.4,5.4-3c2.2-0.7,4.5-1.1,6.8-1.1c4.5,0,8,1.1,10.7,3.1c2.6,2,4,5.1,3.9,8.3v19.8
			c0,0.9,0.3,1.8,0.9,2.6c0.6,0.8,1.4,1.2,2.4,1.4L1089.5,233.9z M1075.8,216.7c-4.4,0-7.7,0.8-10,2.6c-2.3,1.7-3.5,4.2-3.5,7.6
			c-0.1,1.7,0.5,3.4,1.6,4.7c1,1.2,2.4,1.9,3.9,1.9c1.1,0,2.1-0.2,3-0.8c1.1-0.7,2-1.4,2.9-2.4c0.9-0.9,1.6-2,2-3.1V216.7z"/>
		<path class="st2" d="M1090.7,233.4c0.9-0.2,1.7-0.7,2.4-1.4c0.6-0.8,0.9-1.7,0.9-2.6V186c0-0.9-0.3-1.8-0.9-2.6
			c-0.6-0.8-1.4-1.2-2.4-1.4l-2.3-0.5v-0.7h13.7v48.6c0,0.9,0.3,1.8,0.9,2.6c0.6,0.8,1.4,1.2,2.4,1.4l2.3,0.5v0.7h-19.2v-0.7
			L1090.7,233.4z"/>
		<path class="st2" d="M1110,233.4c0.9-0.2,1.7-0.7,2.4-1.4c0.6-0.8,0.9-1.7,0.9-2.6v-25c0-0.9-0.3-1.8-0.9-2.6
			c-0.6-0.8-1.4-1.2-2.4-1.4l-2.3-0.5v-0.7h13.7v30.1c0,0.9,0.3,1.8,0.9,2.6c0.6,0.8,1.4,1.2,2.4,1.4l2.3,0.5v0.7h-19.2v-0.7
			L1110,233.4z M1120,193.5c-1.7,1.7-4.3,1.7-6,0.2c-1.7-1.7-1.7-4.3-0.2-6c1.7-1.7,4.3-1.7,6-0.2c0.8,0.8,1.3,1.9,1.3,3.1
			C1121.3,191.6,1120.8,192.6,1120,193.5L1120,193.5z"/>
		<path class="st2" d="M996.4,235.6c-3.6,0.5-8.9,0.2-12.1-1.2c-3.2-1.4-6-3.6-8.2-6.4c-2.1-2.7-3.7-5.8-4.8-9.1
			c-1.1-3.3-1.8-6.6-2.1-9.9c-0.4-3.3-0.5-6.8-0.2-10.2s1-6.8,2-10c2-6.6,5.6-12.5,10.5-17.3c5.1-4.7,11.3-7.8,18.1-9.2
			c6.7-1.3,13.5-1.4,20.2-0.3c6.6,1.1,13.1,2.8,19.4,5.2c6.3,2.3,12.4,5,18.4,7.7c3,1.4,6,2.5,9.1,3.4c3,0.9,6.2,1.3,9.4,1.1
			c3.1-0.2,6.1-1.1,8.8-2.8c1.3-0.8,2.4-1.9,3.3-3.2c0.5-0.6,0.8-1.3,1.2-2c0.4-0.7,0.7-1.4,0.9-2.2c2-5.8,0.8-13-3.5-17.4
			c-2.1-2.2-5-3.6-8.1-3.7c-3.1-0.1-6.1,1.1-8.3,3.3c-2.2,2.1-3.7,5.2-3,8.1c0.8,3,2.7,5.7,5.2,8c-3.2-1.5-5.6-4.2-6.7-7.6
			c-0.5-1.7-0.5-3.6,0.3-5.4c0.7-1.7,1.7-3.1,3-4.4c1.2-1.3,2.7-2.3,4.3-3c1.7-0.7,3.4-1.1,5.2-1.1c3.6,0.1,7.1,1.6,9.6,4.2
			c0.6,0.6,1.2,1.3,1.7,2c1.5,2.2,2.5,4.6,3,7.3c0.7,3.5,0.5,7.1-0.6,10.4c-0.3,0.8-0.6,1.7-1,2.4c-0.4,0.8-0.9,1.5-1.4,2.3
			c-1.1,1.4-2.4,2.7-3.9,3.7c-3,1.9-6.4,3-9.9,3.2c-3.4,0.2-6.9-0.2-10.2-1.2c-3.3-0.9-6.4-2.1-9.5-3.5c-6.1-2.7-12.1-5.3-18.3-7.6
			c-6.1-2.4-12.5-4-19-5c-6.4-1.1-13-0.9-19.3,0.3c-6.3,1.3-12.1,4.2-16.9,8.6c-4.6,4.5-8,10.1-9.9,16.2c-1.9,6.2-2.5,12.7-1.7,19.1
			c0.3,3.2,1,6.4,2,9.4c1,3,2.4,5.8,4.4,8.3c3.8,4.9,5.3,7.9,11.3,7.1"/>
		<path class="st2" d="M983.1,170.9c-0.8-2-1.1-4.1-1.1-6.1c0-2.3,1.1-4.3,2.8-5.7c1.7-1.1,3.6-2.2,5.5-3.1c0.9-0.5,1.7-1,2.4-1.7
			c0.6-0.7,1.1-1.5,1.3-2.4l0,0c0.1-0.3,0.5-0.5,0.8-0.5c0.2,0.1,0.5,0.3,0.5,0.5c0.3,2,0.3,4,0,6.1c-0.2,2-1.1,4-2.5,5.5
			c-1.4,1.4-3.3,2.4-4.9,3.5c-1.7,0.9-3,2.4-3.7,4.2c0.3-2,1.8-3.6,3.4-4.7c1.6-1.1,3.3-2.2,4.5-3.6c1.2-1.4,1.9-3.2,2-5.1
			c0.2-1.9,0.2-3.8-0.1-5.7l1.3,0.1c-0.3,1.1-0.8,2.1-1.7,3c-0.8,0.8-1.7,1.4-2.7,1.8c-1.9,0.9-3.8,1.8-5.5,2.9
			c-1.6,1.1-2.7,3-2.7,4.9C982.4,166.8,982.6,168.9,983.1,170.9z"/>
		<path class="st2" d="M983.7,169.9c-0.2-1.7,0.2-3.6,1.1-5.2c0.5-0.8,1.1-1.5,2-2c0.7-0.5,1.4-0.9,2-1.4c1.4-0.9,2.6-2,3.6-3.3
			c1-1.4,1.7-2.9,2.1-4.6c0.1,1.8-0.4,3.6-1.3,5.1c-0.9,1.5-2.2,2.8-3.6,3.9c-0.7,0.5-1.4,1-2.2,1.4c-0.7,0.4-1.3,0.9-1.7,1.5
			C984.7,166.7,984,168.2,983.7,169.9z"/>
		<path class="st2" d="M1029.7,165.3c0.2-2,0.9-3.9,1.9-5.5c1-1.8,2.8-3.1,4.9-3.4c2-0.2,3.9-0.2,5.9-0.2c0.9,0.1,1.8-0.1,2.7-0.3
			c0.8-0.3,1.6-0.8,2.2-1.4l0,0c0.2-0.2,0.7-0.2,0.9,0c0.2,0.2,0.2,0.5,0.2,0.7c-0.7,1.7-1.6,3.5-2.7,5c-1.1,1.6-2.7,2.8-4.6,3.4
			c-1.8,0.4-3.7,0.6-5.5,0.6c-1.8-0.1-3.6,0.6-5,1.7c1.1-1.5,3.1-2.1,4.9-2.4c1.8-0.2,3.7-0.3,5.3-0.9s3-1.7,3.9-3.2
			c1-1.4,1.8-3,2.5-4.7l1.1,0.7c-0.8,0.8-1.7,1.4-2.7,1.7c-1,0.2-2,0.4-3,0.3c-2-0.1-3.9-0.2-5.8-0.2c-1.8,0.2-3.5,1.2-4.5,2.8
			C1031.1,161.7,1030.2,163.4,1029.7,165.3z"/>
		<path class="st2" d="M1030.7,164.8c0.6-1.6,1.7-2.9,3.2-3.8c0.8-0.5,1.6-0.7,2.5-0.8c0.8-0.1,1.6-0.1,2.4-0.2
			c1.5-0.2,3-0.5,4.5-1.1c1.4-0.7,2.7-1.6,3.8-2.7c-0.8,1.5-1.9,2.8-3.3,3.6c-1.4,0.8-3.1,1.4-4.7,1.5c-0.8,0.1-1.7,0.2-2.4,0.2
			c-0.7,0-1.4,0.2-2.1,0.5C1033,162.6,1031.7,163.6,1030.7,164.8z"/>
		<path class="st2" d="M1049,171.9c0.2-1.5,0.7-3,1.4-4.3c0.8-1.4,2.2-2.4,3.9-2.7c1.5-0.2,3-0.2,4.6-0.2c0.7,0,1.4-0.1,2-0.2
			c0.6-0.2,1.1-0.5,1.6-1.1l0,0c0.2-0.2,0.6-0.2,0.9,0l0,0c0.2,0.2,0.2,0.5,0.2,0.7c-0.5,1.4-1.2,2.7-2,3.9
			c-0.9,1.3-2.1,2.2-3.6,2.7c-1.4,0.3-2.9,0.5-4.3,0.5c-1.4-0.1-2.8,0.4-3.9,1.3c1-1.1,2.4-1.7,3.8-1.9c1.4-0.1,2.7-0.4,4.1-0.8
			c1.2-0.5,2.3-1.4,3-2.5c0.8-1.1,1.4-2.4,1.9-3.6l1.1,0.7c-0.6,0.6-1.4,1.1-2.2,1.4c-0.8,0.2-1.6,0.3-2.4,0.2
			c-1.5-0.1-3-0.2-4.5-0.2c-1.4,0.2-2.7,0.9-3.4,2.1C1050.1,169.1,1049.4,170.5,1049,171.9z"/>
		<path class="st2" d="M1049.8,171.5c0.5-1.2,1.3-2.3,2.4-3c0.6-0.4,1.3-0.6,2-0.6c0.6-0.1,1.2-0.1,1.8-0.2c1.1-0.2,2.4-0.4,3.4-0.8
			c1.1-0.5,2.1-1.1,3-2c-0.5,1.2-1.4,2.2-2.5,2.9c-1.1,0.7-2.4,1.1-3.7,1.2c-0.6,0.1-1.3,0.2-1.9,0.2c-0.5,0-1.1,0.1-1.6,0.3
			C1051.6,169.9,1050.6,170.6,1049.8,171.5z"/>
		<path class="st2" d="M1069.7,179.5c-0.2-1.3-0.2-2.7,0.1-3.9c0.3-1.4,1.2-2.7,2.6-3.3c1.2-0.5,2.5-0.9,3.8-1.2
			c0.6-0.2,1.1-0.4,1.6-0.7c0.5-0.3,0.8-0.8,1.1-1.2l0,0c0.2-0.3,0.6-0.4,0.9-0.2c0.2,0.2,0.3,0.4,0.3,0.6c-0.1,1.3-0.4,2.6-0.8,3.8
			c-0.5,1.3-1.3,2.4-2.4,3.1c-1.1,0.6-2.3,1.1-3.5,1.4c-1.2,0.3-2.2,1-3,2c0.5-1.1,1.5-2,2.7-2.5c1.1-0.5,2.2-1,3.2-1.7
			c0.9-0.7,1.5-1.7,1.8-2.7c0.4-1.1,0.6-2.3,0.7-3.4l1.2,0.3c-0.4,0.7-0.9,1.3-1.5,1.7c-0.6,0.4-1.3,0.6-2,0.8
			c-1.3,0.3-2.6,0.6-3.7,1c-1.1,0.5-2,1.4-2.4,2.5C1070,176.9,1069.7,178.2,1069.7,179.5z"/>
		<path class="st2" d="M1070.3,179c0.1-1.1,0.5-2.3,1.2-3.1c0.4-0.5,0.9-0.8,1.5-1.1c0.5-0.2,1-0.4,1.4-0.6c0.9-0.4,1.8-0.9,2.7-1.5
			c0.8-0.7,1.5-1.4,2-2.4c-0.2,1.1-0.6,2.2-1.4,3c-0.8,0.8-1.7,1.5-2.8,2c-0.5,0.2-1.1,0.4-1.6,0.5c-0.5,0.1-0.8,0.3-1.2,0.6
			C1071.4,177.2,1070.7,178.1,1070.3,179z"/>
		<path class="st2" d="M995.4,164.4c0.5,1.7,1.3,3.4,2.4,4.9c0.9,1.4,2.5,2.4,4.2,2.6c1.7,0.1,3.6-0.1,5.5-0.2c1-0.1,2,0,2.9,0.3
			c1,0.3,1.9,0.8,2.6,1.6l-1.1,0.7c-0.6-1.6-1.4-3-2.4-4.4c-0.9-1.4-2.2-2.4-3.7-3c-1.7-0.5-3.3-0.8-5-0.8c-1.7-0.2-3.6-0.8-4.6-2.3
			c1.3,1.1,3,1.7,4.7,1.7c1.7,0,3.5,0.2,5.2,0.5c1.7,0.5,3.3,1.7,4.4,3.2c1.1,1.4,2,3,2.6,4.7c0.2,0.3,0,0.7-0.4,0.8
			c-0.2,0.1-0.5,0-0.7-0.2l0,0c-0.5-0.6-1.3-1.1-2-1.3c-0.8-0.2-1.7-0.3-2.5-0.2c-1.8,0.1-3.7,0.1-5.5-0.1c-2-0.3-3.6-1.5-4.6-3.2
			C996.2,168,995.6,166.2,995.4,164.4z"/>
		<path class="st2" d="M996.4,164.9c1,1.1,2.1,2,3.4,2.7c0.6,0.3,1.3,0.4,2,0.4c0.8,0,1.5,0.1,2.4,0.2c1.6,0.2,3.1,0.7,4.5,1.4
			c1.4,0.8,2.4,2,3.1,3.4c-1.1-1.1-2.3-1.9-3.6-2.5c-1.4-0.5-2.7-0.9-4.2-1.1c-0.7-0.1-1.4-0.2-2.2-0.2c-0.8,0-1.7-0.3-2.4-0.7
			C998,167.6,997,166.3,996.4,164.9z"/>
		<path class="st2" d="M1019.6,163.7c0,1.8,0.4,3.6,1.1,5.3c0.5,1.7,1.8,3,3.5,3.6c1.7,0.5,3.5,0.8,5.3,1.2c1,0.2,1.9,0.5,2.7,1
			c0.9,0.5,1.6,1.3,2.1,2.2l-1.2,0.4c-0.2-1.7-0.6-3.3-1.2-4.9c-0.5-1.5-1.5-2.9-2.9-3.8c-1.4-0.8-3-1.5-4.6-2
			c-1.6-0.6-3.3-1.7-3.9-3.3c1,1.4,2.5,2.4,4.2,2.7c1.7,0.4,3.4,1,4.9,1.7c1.6,1,2.8,2.4,3.4,4.2c0.7,1.7,1.1,3.4,1.4,5.2
			c0.1,0.4-0.2,0.7-0.5,0.7c-0.2,0-0.5-0.1-0.6-0.3l0,0c-0.4-0.7-1-1.3-1.7-1.7c-0.8-0.4-1.6-0.7-2.4-0.8c-1.8-0.4-3.6-0.8-5.4-1.4
			c-1.8-0.8-3.2-2.4-3.7-4.3C1019.6,167.4,1019.4,165.5,1019.6,163.7z"/>
		<path class="st2" d="M1020.4,164.4c0.7,1.3,1.6,2.5,2.7,3.4c0.5,0.4,1.1,0.7,1.8,0.8c0.8,0.2,1.5,0.5,2.2,0.7
			c1.5,0.5,2.9,1.4,4,2.5c1.1,1.1,1.9,2.5,2.2,4.1c-0.8-1.3-1.7-2.4-2.9-3.3c-1.1-0.8-2.4-1.5-3.8-2c-0.7-0.3-1.4-0.5-2-0.8
			c-0.8-0.2-1.5-0.7-2.1-1.3C1021.3,167.4,1020.7,166,1020.4,164.4z"/>
		<path class="st2" d="M1042.7,170.6c-0.4,1.5-0.5,3.1-0.3,4.6c0.1,1.4,0.8,2.8,2,3.6c1.3,0.8,2.7,1.4,4.1,2.2
			c0.8,0.4,1.4,0.8,2.1,1.4c0.6,0.7,1.1,1.4,1.3,2.4h-1.1c0.2-1.4,0.2-2.8,0.1-4.2c-0.1-1.4-0.6-2.7-1.4-3.8c-1-1.1-2.1-2-3.3-2.8
			c-1.2-0.9-2.3-2.1-2.5-3.6c0.5,1.4,1.6,2.5,2.9,3.2c1.4,0.8,2.6,1.6,3.7,2.6c1.1,1.2,1.8,2.7,2,4.3c0.2,1.5,0.2,3.1,0,4.6
			c-0.1,0.4-0.4,0.6-0.7,0.5c-0.2,0-0.5-0.2-0.5-0.5l0,0c-0.2-0.7-0.5-1.3-1-1.7c-0.5-0.5-1.1-0.9-1.7-1.2c-1.4-0.8-2.8-1.5-4.1-2.4
			c-1.4-1.1-2.1-2.7-2.1-4.4C1041.9,173.6,1042.2,172,1042.7,170.6z"/>
		<path class="st2" d="M1043.3,171.3c0.3,1.2,0.8,2.4,1.5,3.4c0.4,0.5,0.8,0.8,1.3,1.1c0.6,0.3,1.1,0.7,1.7,1.1c1.1,0.8,2,1.8,2.7,3
			c0.7,1.2,1,2.6,0.8,3.9c-0.4-1.2-0.9-2.4-1.7-3.3s-1.7-1.8-2.7-2.5c-0.5-0.4-1.1-0.8-1.5-1.1c-0.6-0.4-1.1-0.9-1.5-1.6
			C1043.3,174,1043,172.7,1043.3,171.3z"/>
		<path class="st2" d="M1062,178.5c-0.3,1.4-0.4,2.7-0.2,4.1c0.1,1.3,0.8,2.5,1.8,3.2c1.1,0.7,2.4,1.3,3.6,1.9
			c0.7,0.3,1.3,0.8,1.9,1.3c0.5,0.6,1,1.3,1.1,2.1l-1.2,0.1c0.2-1.3,0.2-2.5,0.1-3.8c-0.1-1.2-0.5-2.4-1.3-3.3
			c-0.9-0.9-1.9-1.7-3-2.4c-1.1-0.8-1.9-2-2.2-3.3c0.5,1.2,1.4,2.2,2.6,2.8c1.2,0.6,2.3,1.4,3.3,2.3c1,1.1,1.6,2.4,1.7,3.9
			c0.2,1.4,0.2,2.7,0,4.1c0,0.4-0.4,0.6-0.7,0.5c-0.2,0-0.5-0.2-0.5-0.5l0,0c-0.2-0.5-0.5-1.1-0.8-1.5c-0.5-0.5-1-0.8-1.5-1.1
			c-1.3-0.7-2.5-1.4-3.6-2.2c-1.2-1-1.9-2.4-1.9-4C1061.2,181.2,1061.5,179.9,1062,178.5z"/>
		<path class="st2" d="M1062.4,179.2c0.3,1.1,0.8,2.1,1.4,3c0.3,0.4,0.7,0.7,1.1,0.9c0.5,0.3,1.1,0.6,1.5,1c1,0.7,1.8,1.6,2.4,2.7
			s0.8,2.3,0.7,3.5c-0.3-1.1-0.8-2-1.5-3c-0.7-0.8-1.5-1.6-2.4-2.2c-0.5-0.3-0.9-0.6-1.4-0.9c-0.5-0.4-1.1-0.8-1.4-1.4
			C1062.4,181.7,1062.2,180.4,1062.4,179.2z"/>
	</g>
</g>
<text transform="matrix(1 0 0 1 557.1406 292.7031)" class="st2 st3 st4">Placeholder</text>
<text transform="matrix(1 0 0 1 133.1406 292.7031)" class="st2 st3 st4">Placeholder</text>
<text transform="matrix(1 0 0 1 982.1406 292.7031)" class="st2 st3 st4">Placeholder</text>
</svg>
