<?xml version="1.0" encoding="utf-8"?>
<!-- Generator: Adobe Illustrator 25.3.1, SVG Export Plug-In . SVG Version: 6.00 Build 0)  -->
<svg version="1.1" id="Layer_1" xmlns:serif="http://www.serif.com/"
	 xmlns="http://www.w3.org/2000/svg" xmlns:xlink="http://www.w3.org/1999/xlink" x="0px" y="0px" viewBox="0 0 776.4 768"
	 style="enable-background:new 0 0 776.4 768;" xml:space="preserve">
<style type="text/css">
	.st0{fill:#F9F8F8;}
	.st1{fill:#433939;}
</style>
<g>
	<path class="st0" d="M773.4,384c0-212.1-171.9-384-384-384S5.4,171.9,5.4,384c0,191.7,140.4,350.5,324,379.3V495h-97.5V384h97.5
		v-84.6c0-96.2,57.3-149.4,145-149.4c42,0,86,7.5,86,7.5V252h-48.4c-47.7,0-62.6,29.6-62.6,60v72h106.5l-17,111h-89.5v268.3
		C632.9,734.5,773.4,575.7,773.4,384z"/>
	<path class="st1" d="M538.8,495l17-111H449.4v-72c0-30.4,14.9-60,62.6-60h48.4v-94.5c0,0-43.9-7.5-86-7.5
		c-87.7,0-145,53.2-145,149.4V384h-97.5v111h97.5v268.3c19.5,3.1,39.6,4.7,60,4.7c20.4,0,40.4-1.6,60-4.7V495H538.8z"/>
</g>
</svg>
